<?xml version="1.0" encoding="UTF-8"?>
<svg id="Layer_1" data-name="Layer 1" xmlns="http://www.w3.org/2000/svg" viewBox="0 0 592.9 356.97">
  <defs>
    <style>
      .cls-1 {
        fill: #fff;
      }

      .cls-2 {
        fill: #bc7e55;
      }

      .cls-3 {
        fill: #373435;
      }

      .cls-4 {
        fill: #c0b970;
      }

      .cls-5 {
        fill: #d6682f;
      }

      .cls-6 {
        fill: #1e1635;
      }

      .cls-7 {
        fill: #ddc7b8;
      }

      .cls-8 {
        fill: #968e40;
      }

      .cls-9 {
        fill: #e6e6e5;
      }

      .cls-10 {
        fill: #bf9dc9;
      }

      .cls-11 {
        fill: #7865a6;
      }

      .cls-12 {
        fill: #ec7d3f;
      }

      .cls-13 {
        fill: #010101;
      }

      .cls-14 {
        fill: #efdfd0;
      }

      .cls-15 {
        fill: #f79657;
      }

      .cls-16 {
        fill: #d75c5c;
      }
    </style>
  </defs>
  <path class="cls-14" d="M377.78,323.44c14.17-5.85,11.85-10.69,47.09-27.11,31.29-14.58,107.09,12.23,135.01-86.16C599.77,69.57,449.7-46.71,297.46,18.71c-43.56,18.72-129.98,75.79-112.65,186.41,8.95,57.13,51.18,105.26,106.8,119.74,25.28,6.58,56.46,10.84,86.17-1.42Z"/>
  <ellipse class="cls-3" cx="285.39" cy="329.35" rx="280.05" ry="13.13"/>
  <ellipse class="cls-3" cx="353.9" cy="344.34" rx="68.68" ry="12.63"/>
  <g>
    <g>
      <path class="cls-4" d="M565.31,173.11c-.42-1.14-.27-1.42,0-2.46.57-2.21,5-3.19,7.24-7.52,1.43-2.75,6.28-1.86,9.16-4.51,2.05-1.89-.46-2.82,4.65-5.88,7.76-4.65,6.61-9.58,6.29-9.7-.51-.2-.43,1.28-1.02,2.03-2.77,3.52-21.12-2.82-36.62,7.56-6.75,4.52-11.43,10.76-12.66,18.57-.91,5.72.98,8.61,3.01,8.08,2.4-.63.64.97,2.14,3.12,6.26,8.91,19.37-5.01,17.81-9.28Z"/>
      <path class="cls-8" d="M485.1,188.18c7.57,7.27,13.18,1.57,18.02-4.23,1.17-1.4,4.54,3.6,8.62-1.68,6.42-8.3-1.96-19.85-10.7-45.92-1.07-3.2-10.89-26.25-16.81-36.19-2.9-4.87-6.15-8.26-8.91-9.69-7.02-3.62-11.96-1.34-12.47-4.33-.38-2.18,1.4-2.69.32-3.15-1.38-.59-4.69,8.58-4.02,17.73.53,7.18,3.09,9.84,5.84,17.77,2.69,7.76,2.13,10.64,3.95,23.29,3.45,24,5.17,35.85,16.16,46.4Z"/>
      <path class="cls-8" d="M519.39,273.2c.62-6.35,1.28-12.72,2.11-19.06.83-6.34,1.83-12.67,3.08-18.96,1.25-6.28,2.75-12.52,4.58-18.66,1.83-6.14,4.01-12.19,6.63-18.04,2.62-5.85,5.7-11.51,9.34-16.79,3.64-5.27,7.87-10.16,12.67-14.41,4.8-4.24,10.19-7.82,15.98-10.54.73-.33,1.45-.66,2.19-.99l2.2-.95c1.46-.64,2.91-1.3,4.33-2.03,1.41-.73,2.79-1.54,4.09-2.47,1.29-.93,2.5-2,3.48-3.26-.96,1.28-2.15,2.37-3.43,3.32-1.28.95-2.66,1.78-4.06,2.54-1.41.76-2.85,1.44-4.3,2.1l-2.18.98c-.72.33-1.44.68-2.16,1.02-5.72,2.79-11.02,6.43-15.71,10.72-4.7,4.28-8.8,9.19-12.33,14.47-3.52,5.29-6.48,10.93-8.99,16.77-2.51,5.84-4.57,11.86-6.29,17.97-1.72,6.12-3.11,12.33-4.25,18.58-1.14,6.25-2.03,12.56-2.76,18.88-.73,6.32-1.29,12.66-1.8,19.02l-2.38-.22Z"/>
      <path class="cls-4" d="M480.62,113.32c-4.38,6.8-11.26,8.3-11.38,8.09-.15-.26,6.1-2.62,9.53-9.42-2.95-1.91-6.42-3.18-10.47-3.51-7.72-.62-4.89-2.41-11.26-4.56-8.35-2.81-11.76-3.02-13.59-2.43-2.95.94-3.05-1.57-3.53-1.11-.31.3-2.82,6.3,1.2,10.43,2.12,2.18,4.68,1.26,7.57,4.46,1.54,1.71,1.41,2.85,2.52,5.05,2.41,4.75,8.13,4,8.93,8.15,4.73,24.61,13.5,26.14,21.42,26.25,4.36.06,3.67-3.7,6.4-3.18,7.14,1.37,7.21-26.63-7.34-38.23Z"/>
      <path class="cls-8" d="M519.44,95.02c6.38,4.97,13.37,4.11,13.41,3.87.06-.3-6.62-.46-12.11-5.74,2.15-2.78,5.01-5.12,8.72-6.77,7.08-3.14,3.82-3.9,9.12-8.02,6.95-5.41,10.1-6.74,12.02-6.79,3.1-.09,2.36-2.5,2.96-2.21.39.18,4.74,5.01,2.32,10.24-1.28,2.76-4,2.74-5.67,6.72-.89,2.12-.39,3.16-.71,5.6-.7,5.28-6.35,6.47-5.73,10.65,3.68,24.79-4.1,29.14-11.53,31.86-4.09,1.5-4.69-2.28-7.09-.88-6.29,3.65-15.61-22.74-5.72-38.51Z"/>
      <path class="cls-4" d="M520.52,78c-7.73-6.08-11.17-12.02-16.11-12.62-2.72-.33-2.43.83-5.05-1.16-1.2-.92-2.17-2.35-2.52-2.14-.33.2.55,1.44.39,2.91-.26,2.3-2.83,2.98-4.46,5.05-1.22,1.54-1.46,3.27-1.46,5.08,4.76,2.09,13.04,1.33,11.9,1.82-1.17.51-7.58,1.82-11.8,1.66.05,7.29-3.06,9.33-5.05,17.84-1.52,6.49-.72,9.69-.58,18.64.43,27.25-6.35,33.28-.39,44.26.66,1.22,8.64,10.8,15.83,10.87,4.32.04,5.6-3.38,11.26-3.69,5.53-.3,7.2,2.81,12.81,3.3,0,0,3.8.56,11.15-4.27,18.56-12.21,4.08-71.82-15.92-87.55Z"/>
      <path class="cls-8" d="M572.42,122.85c-.51-3.01-2.03-4.22-1.5-6.97.19-.98.6-1.98.27-2.19-.44-.28-1.78,1.12-2.19,1.5-3.43,3.27-11.22,2.09-12.85,1.91-9.83-1.06-22.7,9.91-28.7,16.95-2.78,3.26-13.86,16.24-10.66,30.21.12.52.96,10.6,8.06,11.62,4.5.64,6.44-4.54,11.38-3.25,3.24.85,4.6,3.1,7.62,3.38,4.02.37,7.54-4.55,8.34-5.74,2.88-4.31,1.32-6.38,3.96-14.08,1.24-3.6,2.27-6.63,4.78-9.98,2.3-3.08,4.25-4.28,5.44-5.88-2.33.75-5.26.6-8.48-.47-2.2-.73-4.11-2.27-3.88-2.53.19-.22,2.67,1.37,5.89,1.14,4.36-.31,6.47-1.68,7.72-2.76-.11-2.71-1.21-4.95-.26-5.5.77-.45,1.69.91,2.87.55,1.77-.55,2.75-4.55,2.19-7.93Z"/>
      <path class="cls-4" d="M495.33,174.53c-7.66-3.91-8.94-3.19-13.68-8.12-1.53-1.59-2.43-4.26-12.29-8.24-2.27-.92-.71-2.44-1.03-2.78-.53-.56-2.82,1.45-3.87,3.92-2.46,5.78-1.55,10.37.2,14.15,6.41,3.69,10.67,1.6,10.97,2.4.11.29-4.93,1.61-8.9,1.35.81,1.31,1.6,2.51,2.22,3.63,1.77,3.23,1.56,9.13,3.51,15.01,7.99-3.86,14.39-2.88,14.39-2.76,0,.02-.65.03-1.2.14-6.67,1.28-9.66,4.31-11.62,6.32,1.61,3.04,4.07,5.91,8,8.22.85.5,4.29,2.77,8.94,1.83,4.39-.89,3.1-6.04,6.38-5.81,15.01,1.06,11.31-22.47-1.99-29.26Z"/>
      <path class="cls-4" d="M521.76,269.8c4.93-12.58,9.05-25.51,11.56-38.77,1.24-6.63,2.07-13.33,2.29-20.06.11-3.36.07-6.73-.15-10.09-.22-3.36-.62-6.7-1.22-10.01-.15-.83-.31-1.65-.49-2.48-.17-.83-.35-1.67-.51-2.52-.32-1.69-.59-3.39-.79-5.1-.41-3.42-.55-6.87-.42-10.31.14-3.44.56-6.87,1.29-10.23l.29-1.26.32-1.25c.22-.82.44-1.65.68-2.47.48-1.65,1.01-3.28,1.61-4.88,1.2-3.21,2.68-6.32,4.48-9.24,1.8-2.92,3.92-5.64,6.36-8.04,1.22-1.2,2.52-2.32,3.88-3.35l1.04-.75c.35-.25.71-.48,1.06-.72.72-.46,1.45-.91,2.19-1.32,2.97-1.68,6.15-2.97,9.43-3.87-3.26.98-6.4,2.34-9.32,4.07-.73.43-1.44.89-2.15,1.36-.35.25-.7.48-1.04.74l-1.01.76c-1.33,1.05-2.59,2.19-3.76,3.4-2.36,2.43-4.38,5.16-6.08,8.07-1.71,2.91-3.09,6.01-4.2,9.2-.56,1.59-1.04,3.21-1.48,4.84-.22.82-.42,1.64-.61,2.46l-.28,1.23-.25,1.24c-.63,3.31-.97,6.67-1.03,10.03-.05,3.36.17,6.73.65,10.05.23,1.66.54,3.32.89,4.96.17.82.36,1.64.56,2.47.2.83.38,1.67.56,2.51.7,3.37,1.18,6.78,1.49,10.21.3,3.43.42,6.87.39,10.31-.06,6.88-.75,13.73-1.85,20.51-2.23,13.56-6.1,26.77-10.8,39.63l-3.58-1.36Z"/>
      <path class="cls-8" d="M510.8,274.04c-.61-16.11-2.33-32.2-4.85-48.16-2.55-15.96-5.91-31.8-10.38-47.34-1.12-3.88-2.32-7.74-3.6-11.57-1.28-3.83-2.66-7.63-4.15-11.38-1.48-3.76-3.1-7.46-4.86-11.09-.89-1.81-1.81-3.61-2.78-5.37-.98-1.76-2-3.5-3.08-5.2-2.18-3.38-4.6-6.63-7.45-9.47-.36-.34-.71-.71-1.09-1.04l-1.13-1-1.17-.94c-.4-.31-.81-.59-1.21-.89-.42-.28-.84-.55-1.26-.81-.44-.24-.86-.5-1.32-.72-.89-.46-1.82-.84-2.75-1.27-.93-.43-1.84-.95-2.62-1.64-.78-.68-1.45-1.47-2.03-2.32-.3-.42-.58-.84-.86-1.25-.29-.41-.59-.82-.91-1.2-.63-.78-1.33-1.51-2.09-2.16-.77-.65-1.61-1.21-2.51-1.67-.9-.46-1.84-.82-2.8-1.16-.95-.35-1.91-.7-2.78-1.25-.43-.27-.84-.58-1.2-.93-.36-.36-.68-.75-.98-1.16.3.41.63.79,1,1.14.37.34.78.64,1.21.9.87.52,1.83.85,2.78,1.18.96.33,1.92.66,2.84,1.11.92.45,1.78,1,2.58,1.64.79.65,1.51,1.38,2.17,2.16.33.39.64.79.95,1.2.29.42.59.83.89,1.23.58.82,1.25,1.57,2.01,2.21.76.64,1.63,1.12,2.55,1.52.92.4,1.87.77,2.79,1.23.47.21.91.47,1.36.71.44.26.88.53,1.31.8.42.29.85.57,1.26.88l1.21.94,1.17.99c.39.33.75.69,1.13,1.03,2.96,2.83,5.47,6.08,7.75,9.46,1.13,1.7,2.2,3.43,3.22,5.2,1.02,1.76,1.98,3.56,2.91,5.37,1.85,3.63,3.55,7.33,5.12,11.08,1.58,3.75,3.04,7.55,4.4,11.38,1.37,3.83,2.65,7.69,3.85,11.57,4.8,15.54,8.49,31.41,11.37,47.41,2.86,16.01,4.91,32.18,5.85,48.47l-3.83.18Z"/>
      <path class="cls-4" d="M519.27,267.32c-3.35-15.77-5.63-31.79-7.08-47.89-1.44-16.1-2.05-32.28-1.53-48.44.14-4.04.35-8.07.66-12.1.31-4.03.71-8.05,1.24-12.05.52-4,1.18-7.99,2-11.94.42-1.97.87-3.94,1.38-5.89.52-1.95,1.08-3.88,1.72-5.8,1.29-3.81,2.83-7.56,4.9-11,.27-.42.52-.86.8-1.27l.85-1.25.91-1.2c.31-.4.64-.77.96-1.16.33-.37.68-.74,1.03-1.09.36-.34.71-.7,1.1-1.02.75-.67,1.56-1.26,2.35-1.91.8-.64,1.56-1.37,2.14-2.23.59-.85,1.05-1.78,1.4-2.74.19-.48.36-.95.53-1.43.18-.47.37-.93.59-1.39.42-.91.92-1.79,1.5-2.61.59-.82,1.26-1.57,2.02-2.23.76-.67,1.59-1.24,2.43-1.81.84-.57,1.68-1.15,2.39-1.89.35-.37.67-.77.94-1.2.26-.43.48-.89.66-1.37-.19.47-.42.92-.69,1.35-.28.42-.6.82-.96,1.17-.71.72-1.56,1.28-2.41,1.83-.85.55-1.7,1.11-2.48,1.77-.78.66-1.49,1.41-2.1,2.22-.61.82-1.13,1.7-1.58,2.62-.23.46-.43.93-.62,1.4-.18.48-.37.95-.56,1.41-.36.94-.83,1.83-1.41,2.63-.58.81-1.31,1.48-2.1,2.1-.79.61-1.63,1.21-2.41,1.87-.4.32-.77.68-1.15,1.02-.36.36-.72.73-1.07,1.1-.33.39-.68.76-1,1.16l-.95,1.21-.89,1.25c-.3.41-.56.85-.85,1.28-2.18,3.47-3.82,7.23-5.2,11.07-.68,1.92-1.29,3.87-1.85,5.83-.56,1.96-1.05,3.94-1.51,5.92-.9,3.97-1.65,7.97-2.25,12-.61,4.02-1.1,8.06-1.49,12.11-.39,4.05-.69,8.1-.9,12.16-.85,16.24-.55,32.53.58,48.75,1.14,16.22,3.11,32.41,6.19,48.42l3.75-.76Z"/>
      <path class="cls-8" d="M514.8,273.7c.73-8.59,1.08-17.25,1.26-25.91.17-8.66.18-17.34.09-26.02-.19-17.35-.76-34.72-1.56-52.07-.81-17.35-1.82-34.69-3.17-52.01-.34-4.33-.7-8.66-1.11-12.98l-.32-3.24-.35-3.23c-.13-1.07-.29-2.13-.55-3.17-.25-1.04-.65-2.02-1.12-3-.23-.49-.45-1-.65-1.51-.19-.52-.36-1.04-.5-1.57-.3-1.06-.48-2.14-.66-3.21-.34-2.15-.62-4.3-1.06-6.42-.43-2.12-1.04-4.21-1.96-6.18-.91-1.97-2.13-3.79-3.6-5.39,1.49,1.58,2.75,3.38,3.7,5.34.95,1.96,1.61,4.06,2.08,6.18.48,2.12.81,4.28,1.18,6.41.2,1.06.4,2.13.71,3.16.15.52.32,1.02.52,1.52.2.5.42.98.67,1.47.49.97.93,2,1.21,3.07.29,1.07.47,2.15.62,3.23l.41,3.24.38,3.24c.49,4.32.93,8.64,1.35,12.97,1.67,17.31,3,34.64,4.13,51.99,1.11,17.35,2,34.72,2.52,52.11.25,8.7.41,17.4.39,26.11-.02,8.71-.21,17.43-.79,26.17l-3.82-.3Z"/>
      <path class="cls-8" d="M509.1,274.2c-.32-10.17-1.22-20.33-2.8-30.38-1.59-10.05-3.87-20.01-7.04-29.69-1.59-4.84-3.4-9.6-5.49-14.25-2.08-4.65-4.45-9.17-7.15-13.49-2.7-4.31-5.76-8.43-9.29-12.11-.88-.92-1.81-1.8-2.67-2.75-.86-.95-1.69-1.93-2.47-2.94-.77-1.02-1.51-2.07-2.14-3.19-.31-.56-.61-1.13-.84-1.72-.23-.59-.43-1.22-.42-1.86,0,.64.21,1.26.45,1.85.25.59.55,1.15.87,1.7.65,1.1,1.4,2.13,2.19,3.13.79,1,1.63,1.96,2.51,2.88.87.93,1.81,1.79,2.72,2.7,3.62,3.63,6.77,7.71,9.58,12,2.8,4.29,5.27,8.8,7.46,13.44,2.2,4.64,4.11,9.4,5.81,14.24,3.39,9.69,5.88,19.67,7.68,29.78,1.79,10.11,2.89,20.33,3.42,30.58l-2.39.1Z"/>
    </g>
    <g>
      <path class="cls-10" d="M540.61,268.65h-49.88c-1.45,0-2.62,1.18-2.62,2.62v6.45c0,1.45,1.18,2.62,2.62,2.62h1.1l2.8,40.92c0,2.17,1.76,3.94,3.94,3.94h34.22c2.17,0,3.94-1.76,3.94-3.94l2.8-40.92h1.1c1.45,0,2.62-1.18,2.62-2.62v-6.45c0-1.45-1.18-2.62-2.62-2.62Z"/>
      <polygon class="cls-3" points="538.96 288.22 539.5 280.31 491.96 280.31 538.96 288.22"/>
    </g>
  </g>
  <path class="cls-14" d="M165.07,280.82c11.98-4.95,10.02-9.04,39.81-22.92,26.46-12.33,90.55,10.34,114.15-72.86C352.77,66.16,225.89-32.16,97.16,23.16,60.33,38.99-12.74,87.25,1.91,180.78c7.57,48.3,43.28,89,90.3,101.24,21.37,5.56,47.74,9.17,72.86-1.2Z"/>
  <path class="cls-15" d="M232.38,297.77c-1.59,2.64.7,6.62-.31,13.09-.39,2.5-1.5,2.97-2.35,8.37-.24,1.51-.48,3.26.33,5.15.12.29.88,2,2.62,3.2,2.25,1.54,4.52,1.11,8.95.84,2.79-.17,7.08-.44,11.82-.08,3.17.24,5.1.65,9.14.59,3.02-.04,8.95.07,11.77-2.23,3.29-2.68,4.38-1.64,5.91-3.62,2.37-3.07-.65-5.14-1.3-5.18-2.09-.12-3.48-.32-5.48.29-1.62.49-2.88.38-5.4.14-4.54-.43-12.6-3.57-16.03-7.72-3.73-4.52-3.31-10.3-3.48-12.49-.47-6.02-13.6-4.63-16.19-.35Z"/>
  <path class="cls-13" d="M188.59,212.3c4.27,5.19,27.5,16.58,28.32,39.39.83,22.98,12.9,57.59,12.9,57.59,0,0,22.19-.85,27.27-8.11.32-.46-.14-1.24-.36-1.98-.48-1.63-2.53-11.37-3.85-18.38-.56-2.99-1.24-6.58-2.03-10.81-4.08-21.77-1.96-27.42-5.34-42.16-.19-.81-2.57-12.09-10.72-14.45-16.85-4.89-48.79-4.25-46.19-1.09Z"/>
  <g>
    <path class="cls-1" d="M231.5,311.96c.92-.05-.24,2.33,2.12,4.24,1.87,1.51,4.09,1.58,4.77,1.59,2.45.04,4.2-1.02,4.9-1.46,2.17-1.35,3.44-3.34,5.03-5.83,1.57-2.44,2.07-3.86,3.05-3.84.82.02,1.29,1.03,1.99,1.99,1.21,1.66,2.97,2.56,6.49,4.37,1.27.65,11.06,5.83,20.26,4.11,4.24-.79,4.37,3.99,4.37,4.11.02.9-.21,2.58-2.52,4.9-3.31,3.33-7.51,4.57-10.59,5.3-2.63.62-4.78.93-17.35,1.72-13.56.85-11.91.54-12.58.66-.52.09-3.75.11-10.2.13-.49,0-1.65,0-2.38-.79-.39-.41-.55-.94-.66-1.99-.2-1.92.06-3.09.13-4.37.1-1.73-.25-1.65-.4-4.1-.04-.64-.07-2.9.93-6.75.45-1.74,1.94-3.93,2.65-3.97Z"/>
    <path class="cls-11" d="M281.99,320.06c-1.46,1.67-3.32,2.98-5.33,3.97-2.02.97-4.18,1.62-6.35,2.13-1.1.25-2.21.43-3.31.57-1.1.14-2.21.26-3.31.36-2.2.2-4.41.36-6.61.52-2.2.14-4.41.27-6.61.38-2.21.1-4.41.21-6.63.25l-1.66.02h-.84c-.07,0-.14,0-.18,0-.02,0-.04,0-.07,0h-.09c-.18.04-.32.04-.46.04-1.13.02-2.22-.02-3.33-.04-2.21-.07-4.42-.15-6.62-.29,2.21-.15,4.41-.25,6.62-.35,1.1-.05,2.21-.09,3.29-.17.13-.01.26-.03.36-.04l.11-.02s.09-.02.14-.02c.1,0,.17,0,.24-.01l.82-.03,1.64-.1,13.2-.92c2.2-.13,4.4-.28,6.6-.44,2.19-.16,4.39-.33,6.52-.7,2.14-.41,4.28-.91,6.3-1.72,2.02-.8,3.93-1.92,5.59-3.39Z"/>
    <g>
      <path class="cls-11" d="M254.88,317.08c0-.58.08-1.17.19-1.75.07-.29.15-.58.24-.86.1-.28.22-.56.34-.84.13-.27.24-.56.38-.84.14-.28.34-.52.58-.72.49-.38,1.08-.67,1.81-.65l.1.13c-.16.71-.41,1.18-.67,1.64-.24.46-.73.73-1.07,1.14-.34.41-.65.85-.95,1.31-.31.46-.56.96-.81,1.47l-.16-.04Z"/>
      <path class="cls-11" d="M258.72,318.59c-.01-.58.08-1.17.19-1.75.13-.58.32-1.15.58-1.7.13-.27.24-.56.39-.84.14-.28.34-.52.58-.72.49-.38,1.08-.66,1.81-.65l.1.13c-.15.71-.41,1.18-.67,1.64-.13.23-.3.41-.49.59-.2.17-.4.35-.57.55-.17.2-.33.41-.49.63-.16.22-.31.44-.46.67-.31.46-.56.96-.81,1.47l-.16-.04Z"/>
      <path class="cls-11" d="M262.56,320.09c-.01-.58.08-1.17.19-1.75.13-.58.32-1.15.58-1.7.13-.27.24-.56.39-.84.14-.28.34-.52.58-.72.49-.38,1.08-.66,1.81-.65l.1.13c-.15.71-.41,1.18-.67,1.64-.13.23-.3.41-.49.59-.2.17-.4.35-.57.55-.17.2-.33.41-.49.63-.16.22-.31.44-.46.67-.31.46-.56.96-.81,1.47l-.16-.04Z"/>
      <path class="cls-11" d="M266.4,321.6c-.01-.58.08-1.17.19-1.75.13-.58.32-1.15.58-1.7.13-.27.24-.56.39-.84.14-.28.34-.52.58-.72.49-.38,1.08-.66,1.81-.65l.1.13c-.15.71-.41,1.18-.67,1.64-.13.23-.3.41-.49.59-.2.17-.4.35-.57.55-.17.2-.33.41-.49.63-.16.22-.31.44-.46.67-.31.46-.56.96-.81,1.47l-.16-.04Z"/>
    </g>
  </g>
  <g>
    <path class="cls-2" d="M370.35,327.46h2.23c.5,0,.93-.33,1.07-.81l30.84-130.93c.32-1.16-.55-2.3-1.75-2.3h-4.64c-.84,0-1.56.57-1.76,1.38l-27.05,131.29c-.17.7.36,1.37,1.08,1.37Z"/>
    <path class="cls-2" d="M423.03,327.46h2.23c.5,0,.93-.33,1.07-.81l13.01-130.93c.32-1.16-.55-2.3-1.75-2.3h-4.64c-.84,0-1.56.57-1.76,1.38l-9.22,131.29c-.17.7.36,1.37,1.08,1.37Z"/>
    <path class="cls-2" d="M479.05,327.46h-2.23c-.5,0-.93-.33-1.07-.81l-36.28-130.93c-.32-1.16.55-2.3,1.75-2.3h4.64c.84,0,1.56.57,1.76,1.38l32.5,131.29c.17.7-.36,1.37-1.08,1.37Z"/>
  </g>
  <path class="cls-3" d="M498.01,121.15c-12.35-2.17-57.57-2.53-69.79-1.56-8.99.72-15.57,14.67-28.41,35.91-7.27,12.02-15.85,16.29-17.72,17.34-10.18,5.71-24.38,4.84-31.31,9.59-3.07,2.1-5.28,3.53-7.31,6.79-8.23,13.22-5.37,37.51,4.96,43.06,27.04,14.54,83.66,14.54,98.7,13.37,6.95-.54,26.39-.73,38.54-20.1,4.31-6.87,8.9-37.97,16.15-97.31.47-3.83-.64-6.54-3.81-7.09Z"/>
  <path class="cls-12" d="M434.24,184c7.17,1.58,12.9,9.58,13.96,14.33,2.51,11.18,4.41,33.44-16.17,37.48-1.92.38-9.78.6-36.74,2.2-3.29.2-19.84,8.08-29.76,8.45-1.21.04,9.55,5.14,11.39,30.5.31,4.29,4.39,11.45,8.08,18.74,1.02,2,3.05,5.88,6.61,9.55,1.22,1.25,2.7,1.99,4.04,3.67,9.98,12.57-27.92,32.33-25.72,28.66,1.35-2.25,1.12-6.41,1.47-14.33.02-.43,1.04-6.04,1.1-6.25,1.59-5.04-2.57-13.59-2.57-13.6-2.08-4.28-10.81-17.14-19.01-30.63-4.82-7.92-12.54-16.38-15.25-30.29-.34-1.72-1.01-5.96.46-9.27,5.33-11.1,14.68-13.16,30.5-18.74,6.66-2.35,27.56-9.55,27.56-10.29,0-1.1-.9-2.11-4.04-6.61-2.84-4.08,4.41-13.41,7.72-14.33,1.59-.44,3.08.42,3.67.73,7.04,3.81,14.26,4.74,24.99,1.47,5.57-1.7,4.74-2.13,7.72-1.47Z"/>
  <path class="cls-5" d="M365.8,247.24s.03-.04.09-.04c2.07-.08,4.44-.49,6.91-1.08-2.09-8.27-15.13-24.06-21.44-25.25-1.05.44-2.05.9-3,1.38-11.87,16.14-3.95,37.96,1.55,49.13.47.72.93,1.44,1.36,2.15.89,1.46,1.79,2.92,2.68,4.36-1.49-7.35,1.82-25.36,11.79-30.61.02,0,.02-.02.04-.04Z"/>
  <path class="cls-15" d="M370.31,193.55c-6.58-1.51-24.54-.87-27.78.51-.84.36-4.46,2.01-6.61,5.88-1.15,2.07-1.9,4.21-2.35,9.41-.26,3.11-.33,5.45-.37,6.98-.36,13.59.09,24.39,1.47,44.09,1.89,27,0,33.07-.39,34.73-.21.89-1.08,1.65-1.79,2.27-2.36,2.09-8.1,14.98-11.42,18.85-3.52,4.1,44.45-18.07,34.54-23.01-3.68-1.83-4.45-18.79-2.2-29.54,2.71-12.95,4.52-13.44,8.45-24.25,1.3-3.57,3.17-8.87,2.57-15.89-.08-.92-.16-3.41-.06-4.14.42-3.12,2.09-4.98,5.2-6.06,9.55-3.31,26.82-9.55,26.82-9.55,0,0-2.17-9.87-6.61-8.45-.86.27-11.46,0-19.47-1.84Z"/>
  <path class="cls-10" d="M365.34,354.97c-1.22,0-2.18-.17-2.84-.5-.27-.14-2.21-1.5-2.7-3.47-.7-2.8,1.22-5.17,2.03-6.18.07-.09.13-.17.19-.23,1.06-1.37,2.26-2.55,3.42-3.7,1.66-1.64,3.22-3.19,4.46-5.25.98-1.63,1.07-4.49,1.22-9.23.04-1.36.09-2.9.17-4.6.02-.38.65-3.86.86-5.02l.06-.31.32.02c3.91.27,6.35,1.37,6.45,1.41.39.18.72.35,1.03.51.79.41,1.42.74,2.46.9.2.03.62.08,1.17.08,1.24,0,3.06-.25,4.67-1.45,1.98-1.47,2.57-3.64,3.1-5.55.78-2.86.63-4.73.51-6.23-.03-.34-.05-.67-.07-.99,0-.06.04-.12.09-.15h0c.31-.13.67-.07.91.17.73.72,1.58,1.49,2.71,2.33,1.34,1,2.14,1.37,2.91,1.72.61.28,1.23.56,2.1,1.14,1.16.78,3.39,3.59,3.39,5.68,0,3.13-4.29,9.49-8.83,16.24-1.83,2.72-3.73,5.54-5.23,8.01-2.98,4.89-6.93,7.58-9.81,9.54-.51.34-.98.67-1.42.98-3.13,2.23-9.23,4.12-13.33,4.12h0Z"/>
  <path class="cls-1" d="M434.39,184.12c-2.98-.66-2.14-.23-7.72,1.47-10.73,3.27-17.94,2.34-24.99-1.47-.59-.32-2.09-1.17-3.67-.73-2.81.78-8.46,7.62-8.36,12.17-1.91.19-11.69-.15-19.2-1.88-6.58-1.51-25.05-1.38-28.29,0-.84.36-4.46,2.01-6.61,5.88-1.15,2.07-4.41,16.9-4.41,16.9,0,0,11.61,6.12,19.27,12.26,10.98,8.8,20.3,18.95,20.3,18.95,9.91-1.65,21.81-9.36,24.73-9.53,26.96-1.6,34.82-1.83,36.74-2.2,20.58-4.04,18.68-26.3,16.17-37.48-1.07-4.75-6.79-12.75-13.96-14.33Z"/>
  <g>
    <path class="cls-10" d="M311.42,333.69c-1.06,0-2.02-.11-2.85-.31-.92-.23-1.49-1-1.61-1.18-.8-.83-1.39-3.06-.39-4.99l.04-.07c.16-.31.52-1.05,1.47-1.81,1.67-1.34,4.06-2.31,5.77-2.89,2.26-.77,3.94-2.72,7.28-6.62,1.59-1.86,3.78-5.89,5.9-9.79,2.05-3.77,3.98-7.34,5.13-8.4.68-.63,2.37-1.7,4.34-1.7,1.15,0,2.21.36,3.16,1.07.3.22.57.54.87.87.62.71,1.33,1.52,2.57,1.91.5.16,1.03.24,1.58.24.78,0,1.43-.16,1.77-.24,2.42-.59,3.96-2.21,4.78-3.09.64-.68,1.37-1.52,1.95-2.2,1.19-1.39,1.26-1.45,1.49-1.45h.05s1.1-.03,1.2-.03c3.13,0,7.35,15.02,7.39,15.17.4,1.53-.14,2.72-1.62,3.55l-.04.03c-1.31.75-8.07,4.61-12.47,7.07-21.89,12.28-32.62,14.86-37.76,14.86,0,0,0,0,0,0Z"/>
    <g>
      <path class="cls-1" d="M360.37,304.42c-3.93,2.5-7.84,5.06-11.86,7.44-4.03,2.36-8.15,4.59-12.39,6.58l-1.59.74-1.61.71c-1.07.48-2.16.92-3.24,1.36-1.09.43-2.19.84-3.29,1.23-1.11.38-2.22.75-3.34,1.09-2.24.68-4.5,1.31-6.77,1.84-2.28.54-4.59.92-6.9,1.31l-.03-.14c1.11-.39,2.22-.73,3.33-1.09,1.11-.35,2.23-.67,3.33-1.04l3.31-1.1c1.1-.37,2.2-.74,3.3-1.13,4.38-1.53,8.79-2.97,13.05-4.83,4.26-1.84,8.42-3.93,12.51-6.16,4.1-2.2,8.1-4.6,12.14-6.94l.07.12Z"/>
      <path class="cls-1" d="M329.15,302.6c.12,0,.24-.04.34-.11,1.67-1.18,5.32-.94,6.87-.2.3.14.65.01.79-.28.14-.3.01-.65-.28-.79-1.82-.86-5.96-1.17-8.06.31-.27.19-.33.56-.14.83.12.16.3.25.49.25Z"/>
      <path class="cls-1" d="M327.38,306.09c.12,0,.23-.03.33-.1,1.69-1.15,5.33-.86,6.87-.11.29.14.65.02.79-.27.14-.29.02-.65-.27-.79-1.8-.88-5.94-1.26-8.06.2-.27.19-.34.55-.15.82.11.17.3.26.49.26Z"/>
      <path class="cls-1" d="M333.05,309.78c.2,0,.4-.1.51-.29.17-.28.07-.65-.21-.81-1.73-1.03-5.82-1.73-8.05-.46-.28.16-.38.53-.22.81.16.28.53.38.81.22,1.77-1.01,5.38-.43,6.86.45.1.06.2.08.3.08Z"/>
      <path class="cls-1" d="M330.92,313.34c.2,0,.4-.1.51-.29.17-.28.08-.65-.2-.81-1.72-1.04-5.81-1.77-8.05-.5-.29.16-.39.52-.23.81.16.29.52.39.81.23,1.78-1,5.38-.4,6.85.49.1.06.2.09.31.09Z"/>
    </g>
  </g>
  <g>
    <path class="cls-1" d="M400.43,313.24c-1.84,4.31-3.84,8.56-6.14,12.67-2.32,4.09-4.88,8.06-7.91,11.7-1.49,1.84-3.21,3.53-4.99,5.08-.91.77-1.84,1.52-2.82,2.2-.99.67-2.01,1.3-3.08,1.85-2.14,1.08-4.43,1.92-6.83,2.24l-.9.1c-.15.01-.3.04-.45.05h-.45c-.6.02-1.2.05-1.8-.02-1.19-.07-2.37-.28-3.5-.64l.03-.14c1.16.14,2.32.22,3.47.12.29-.02.57,0,.86-.05l.85-.11c.57-.05,1.13-.2,1.68-.31,2.23-.5,4.34-1.4,6.34-2.52,1-.54,1.96-1.17,2.91-1.81.95-.64,1.87-1.33,2.76-2.06.9-.72,1.79-1.47,2.63-2.26.84-.79,1.63-1.62,2.41-2.49,3.08-3.47,5.74-7.32,8.16-11.31,2.44-3.98,4.61-8.13,6.62-12.36l.13.06Z"/>
    <path class="cls-1" d="M378.29,323.99c.87,0,1.73-.05,2.53-.18.38-.06.65-.42.59-.8-.06-.38-.42-.65-.8-.59-3.3.5-7.41-.26-8.68-.98-.34-.19-.77-.07-.96.26-.19.34-.07.77.26.96,1.3.74,4.23,1.33,7.06,1.33Z"/>
    <path class="cls-1" d="M377.7,327.93c.8,0,1.61-.05,2.4-.17.38-.06.65-.42.59-.8-.06-.38-.41-.65-.8-.59-3.36.51-6.74-.29-7.96-.98-.34-.19-.77-.07-.96.26-.19.34-.07.77.26.96,1.3.74,3.83,1.33,6.47,1.33Z"/>
    <path class="cls-1" d="M376.94,331.89c.78,0,1.59-.06,2.44-.18.38-.06.65-.42.59-.8-.06-.38-.41-.65-.8-.59-3.43.52-6.31-.24-7.74-1.05-.34-.19-.77-.07-.96.26-.19.34-.07.77.26.96,1.26.72,3.49,1.4,6.21,1.4Z"/>
    <path class="cls-1" d="M376.08,335.9c.73,0,1.5-.05,2.29-.17.38-.06.65-.42.59-.8-.06-.38-.42-.65-.8-.59-3.22.49-5.91-.22-7.24-.98-.34-.19-.77-.07-.96.26-.19.34-.07.77.26.96,1.19.68,3.3,1.32,5.86,1.32Z"/>
  </g>
  <path class="cls-13" d="M417.28,55.84c9.09-.69,16.15,5.68,28.59,17.23,5.51,5.12,9.49,7.37,11.94,11.36,2.31,3.76,6.85,13.44,4.7,23.89-2.26,10.98-12.12,21-22.91,21.93-18.52,1.6-32.39-24.4-34.85-30.15-4.7-10.97-6.66-27.8,2.94-40.73,2.85-3.84,8.08-3.41,9.59-3.52Z"/>
  <path class="cls-5" d="M388.37,163.61c-.36-.41-2.66-3.02-5.9-2.83-.52.03-2.3.13-3.62,1.52-.36.37-1.15,1.91-1.4,6.93-.39,8.02-2.58,7.57-3.73,9.87-1.5,3-1.55,5.17.88,5.98,2.7.9,13.16-4.51,13.35-4.67,4.28-3.59,4.18-12.54.42-16.81Z"/>
  <path class="cls-1" d="M401.79,102.6c-1.72-.65-8.07,1.11-12.17,9.26-4.01,7.97-2.98,12.89-4.27,18.83-1.5,6.91-2.84,18.11-4.6,21.16-.5.87-2.21,3.22-2.73,5.67-.19.88-.94,7.01,1.85,5.95,7.69-2.93,10.07,5.7,14.46,2.94,5.32-3.34,1.83-18.11,3.57-42.23.87-12,6.69-20.5,3.88-21.57Z"/>
  <path class="cls-1" d="M463.16,115.44c-1.84-4.31-7.15-6.68-11.01-7.56-12.17-2.8-14.54-6.7-19.81-8.13-4.75-1.29-9.15-.29-9.49-.21-2.76.66-7.5,3.45-13.32,2.66-4.44-.6-5.47-.86-9.84.44-1.23.37-7.35,1.94-6.89,8.96.55,8.36-2.67,14.88-3.25,17.27-.71,2.95-1.02,2.82-1.33,4.94-.57,3.93.33,5.44,1.23,11.58,1.16,7.96,2.4,24.13-.41,35.25-.53,2.07-1.68,3.51,2.21,4.86.8.28,13.23,3.93,34.02,2.68,4.08-.24,6.39-.05,9.99-3.82.63-.66,10.05-18.73,12.55-38.8,1.01-8.1,2.57-11.97,4.01-13.77,4.55-5.7,14.63-8.66,11.35-16.34Z"/>
  <path class="cls-10" d="M394.33,111.95c-.06,2.24-.43,4.43-1.1,6.53-.63,2.11-1.51,4.14-2.3,6.25-.81,2.1-1.48,4.29-1.89,6.55-.21,1.13-.32,2.28-.37,3.43-.04,1.16,0,2.3.07,3.43.36,4.53,1.18,8.9,1.62,13.3.44,4.4.54,8.83-.23,13.25.75-2.11,1.19-4.34,1.44-6.58.23-2.25.27-4.51.17-6.76-.08-2.25-.33-4.49-.56-6.71-.25-2.22-.53-4.43-.68-6.61-.08-1.09-.13-2.18-.1-3.26.03-1.07.14-2.15.29-3.23.29-2.15.89-4.25,1.54-6.37.66-2.11,1.38-4.26,1.84-6.48.45-2.22.59-4.52.27-6.74Z"/>
  <path class="cls-12" d="M417.26,92.3c-.55,1.84,1.62,12.57,1.87,13.57,1.24,4.99,5.21,6.33,9.07,6.22,5.35-.16,7.76-4.42,7.62-8.3-.19-5.23-.67-9.69.18-20.07.23-2.79-17.67,5.03-18.73,8.57Z"/>
  <path class="cls-5" d="M424.61,86.45c1.99-.73,2.04-1.73,4.66-.75,1.85.69,3.28,2.48,4.3,4.79-.66,3.05-2.46,6.48-4.44,8.83-1.32,1.56-3.37,3.98-6.84,4.39-1.05.12-2.24.06-3.38-.2-.82-3.54-2.05-9.85-1.64-11.21,1.06-3.54,5.46-5.15,7.35-5.84Z"/>
  <path class="cls-15" d="M440.55,69.78c.1-4.8-2.25-8.41-3.1-9.68-4.07-6.08-8.45-7.66-10.08-8.04-5.65-1.31-10.49-1.21-14.98,2.19-8.2,6.21-6.9,19.88-6.3,24.11.58,4.07,3.15,16.33,9.95,21.55,1.17.9,2.64,1.91,5.08,1.83,3.42-.11,6.59-2.61,7.73-3.84,3.95-4.25,4.9-7.36,6.36-15.16,1.49-7.96,5.23-8.17,5.33-12.97Z"/>
  <path class="cls-16" d="M423.53,94.42c.09-.15-.01-.34-.18-.35-.74-.05-2.53-.12-4.56.09-1.39.14-2.7.5-3.24.66-.14.04-.21.21-.13.34.38.67,1.63,2.41,4.11,2.13,2.23-.25,3.55-2.11,4-2.87Z"/>
  <path class="cls-3" d="M412.94,76.82c-.2-.51-.52-.93-.89-1.3-.37-.37-.8-.68-1.27-.92-.95-.5-2.08-.5-3.11-.4-.26.03-.52.05-.77.11l-.38.08c-.13.03-.27.08-.4.12-.53.2-.98.5-1.37.83-.77.68,1.3.38,1.69.32l.29-.03h.32c.21-.03.43,0,.64,0,.21,0,.42.06.63.1.21.06.41.11.61.18.4.13.79.26,1.2.35l1.28.33c.44.12.9.24,1.42.34l.12-.14Z"/>
  <path class="cls-3" d="M430.85,74.1c-.85-.63-1.84-1.09-2.88-1.41-1.05-.31-2.19-.41-3.32-.29-.29.02-.57.08-.86.12-.28.05-.57.12-.86.19-.56.16-1.1.43-1.55.8-.9.74-1.59,1.74-1.75,2.93l.17.12c1.06-.48,1.88-.94,2.71-1.33.41-.2.8-.41,1.19-.64.2-.11.4-.22.61-.33.21-.09.43-.19.65-.25.45-.13.91-.23,1.38-.27.47-.06.96-.07,1.45-.05.99.03,1.98.25,2.96.57l.1-.18Z"/>
  <path class="cls-9" d="M427.22,79.41c-.01.27-.86,1.05-3.31.95-1.09-.05-2.16-.36-2.14-.91.02-.52.76-1.45,1.7-1.56,1.64-.2,3.77.98,3.75,1.52Z"/>
  <path class="cls-3" d="M425.35,78.72c-.56-1.44-3.13-.95-2.62.99.51,1.95,3.52,1.32,2.62-.99Z"/>
  <path class="cls-3" d="M421.51,79.85c.29-.28.57-.51.86-.64.29-.14.57-.19.87-.2.59-.03,1.24.1,1.93.22.69.12,1.41.27,2.19.3.39.01.8,0,1.22-.1.2-.05.42-.14.6-.26.18-.13.33-.31.39-.5-.19.08-.36.11-.52.11-.17-.01-.32-.03-.49-.08-.32-.08-.65-.2-.98-.32-.67-.23-1.37-.47-2.14-.61-.76-.13-1.61-.2-2.46.11-.42.16-.82.43-1.08.8-.26.36-.38.78-.37,1.18Z"/>
  <path class="cls-9" d="M412.21,80.64c-.02.26-.85.99-3.15.79-1.02-.09-1.48-.57-1.43-1.1.04-.5.24-1.24,1.13-1.32,1.55-.13,3.5,1.09,3.46,1.62Z"/>
  <path class="cls-3" d="M410.37,80c-.45-1.33-2.81-.99-2.42.8.38,1.79,3.15,1.33,2.42-.8Z"/>
  <path class="cls-3" d="M407.03,80.52c.31-.16.57-.31.83-.41.26-.1.5-.16.73-.16.44-.02.87.12,1.39.31.51.19,1.08.43,1.74.56.33.06.7.1,1.07.02.37-.08.72-.3.87-.61-.34.06-.61,0-.85-.09-.24-.09-.47-.23-.71-.37-.48-.29-1-.62-1.63-.85-.32-.11-.66-.21-1.04-.23-.38-.03-.79.03-1.15.19-.36.16-.66.42-.87.7-.21.29-.33.61-.39.95Z"/>
  <path class="cls-15" d="M433.47,86.78c.23.39.8,1.81,1.89,1.78,1.16-.04,2.47-1.13,3.74-3.98,1.2-2.7,1.13-4.27.99-4.92-.09-.41-.37-1.64-1.38-2.18-1.29-.68-2.88.22-3.16.4-2.63,1.58-3.73,6.12-2.07,8.9Z"/>
  <path class="cls-13" d="M449.86,82.16c-4.38-2.15-8.88-3.94-12.76-5.01-16.28-4.48-22.21-15.46-22.21-15.46,0,0-15.4,17.27-10.96,30.8,1.6,4.87,3.59,7.21,3.68,8.37-.5,0-1.02-.03-1.55-.1-.09-.01-.19-.02-.28-.03-1.58-2.38-3.9-8.25-3.9-8.25-1.94-5.6-1.17-10.43.37-20.11,1.79-11.27,4.09-13.87,4.79-14.91,4.32-6.4,8.45-6.88,10.98-5.76.13-.04.26-.06.39-.11,9.65-3.87,19.63.7,24.8,12.51,3.82,8.72,11.93,13.81,15,19.77,3.75,7.27,3.65,12.12,3.46,12.88-.1.4-2.45-10-11.81-14.61Z"/>
  <path class="cls-13" d="M420.35,51.7c2.9-.64,5.88-.73,8.71-.13.7.15,1.4.33,2.08.57.68.24,1.34.5,1.98.82,1.29.61,2.49,1.39,3.57,2.3,2.19,1.81,3.92,4.13,5.23,6.66.16.32.31.64.47.96.17.34.33.69.51,1.03.35.69.73,1.35,1.13,2,.81,1.3,1.71,2.53,2.67,3.7,1.92,2.34,4.08,4.43,6.17,6.51,1.04,1.04,2.08,2.08,3.01,3.18.94,1.09,1.74,2.3,2.45,3.56.71,1.26,1.3,2.59,1.76,3.97.47,1.38.8,2.8,1,4.25.4,2.9.28,5.88-.2,8.8.75-2.87,1.1-5.87.88-8.87-.11-1.5-.37-2.99-.77-4.45-.4-1.46-.96-2.88-1.64-4.23-.34-.68-.71-1.34-1.1-1.99-.2-.32-.4-.64-.62-.96-.22-.31-.44-.63-.67-.93-.92-1.21-1.91-2.35-2.92-3.44-2.02-2.19-4.08-4.29-5.89-6.56-.45-.57-.89-1.14-1.31-1.73-.42-.59-.82-1.19-1.2-1.79-.37-.61-.74-1.23-1.07-1.86-.17-.32-.32-.64-.48-.96-.17-.34-.34-.69-.52-1.03-.72-1.36-1.57-2.65-2.56-3.84-.98-1.19-2.09-2.28-3.33-3.21-1.24-.92-2.59-1.7-4.02-2.28-1.42-.59-2.93-.95-4.44-1.16-.76-.09-1.52-.14-2.28-.13-.76,0-1.51.05-2.26.15-.75.09-1.48.25-2.21.43l-.54.15c-.18.05-.36.11-.53.17-.36.11-.7.25-1.05.37Z"/>
  <g>
    <path class="cls-3" d="M411.91,183.31h-70.15v-3.3h68.58c.48,0,2.15,2.21,2.15,2.21.37.43.05,1.08-.56,1.09,0,0,0,0-.01,0Z"/>
    <g>
      <path class="cls-3" d="M378.81,183.31h-54.15c-2.29,0-4.29-1.52-4.91-3.72l-12.78-45.45c-.43-1.51.71-3.01,2.28-3.01h54.76c2.31,0,4.33,1.53,4.95,3.75l12.6,44.79c.51,1.82-.86,3.63-2.75,3.63Z"/>
      <path class="cls-10" d="M378.79,183.31h-54.33c-2.26,0-4.24-1.5-4.86-3.68l-12.71-45.17c-.3-1.07.5-2.13,1.61-2.13h54.33c2.26,0,4.24,1.5,4.86,3.68l12.71,45.17c.3,1.07-.5,2.13-1.61,2.13Z"/>
    </g>
  </g>
  <g>
    <path class="cls-12" d="M462.95,179.2c-.57,1.63-2.3,2.33-2.56,2.43-1.02.4-9.41,1.95-19.38,1.08-6.36-.56-19.18-3.21-22.08-3.05-2.23.12-2.37.73-5.33,1.12-3.68.47-3.16-.41-6.87.14-3.1.46-5.33,1.12-6.89,1.08-.59-.01-1.55-.35-1.86-.67-.24-.25-.54-.03-.62-.02-.6.07-.94.39-1.26.59-.87.55-2.31.77-3.13.23-.39-.26-.49-.59-.92-.65-.34-.04-.46.15-.94.29-.5.15-.96.08-1.87-.05-.7-.1-1.05-.15-1.24-.34-.46-.47-.32-1.3-.27-1.57,0-.05.09-.51.34-.93,1.26-2.14,5.74-4.85,5.74-4.85,4.46-2.7,6.33-3.59,7.9-3.86.63-.11,4.36.42,6.52,1.41,2.78,1.01,10.2.24,12.8,0,5.71-.52,24.77-3.69,27.25-4,1.37-.17,2.68-.34,4.06-.21,6.23.59,9.64,7.44,9.79,7.73.63,1.18,1.35,2.6.83,4.08Z"/>
    <path class="cls-5" d="M401.32,172.36c-1.21.21-2.39.63-3.51,1.14-1.13.5-2.2,1.11-3.25,1.75-1.04.66-2.05,1.36-3.01,2.13-.96.76-1.89,1.57-2.74,2.46l3.03-2.06c1.01-.68,2.02-1.35,3.05-1.99,1.03-.65,2.07-1.27,3.13-1.85,1.07-.58,2.16-1.11,3.29-1.57Z"/>
    <path class="cls-5" d="M403.3,174.44c-1.07.17-2.11.54-3.11.98-1,.44-1.95.97-2.87,1.54-.92.58-1.81,1.2-2.65,1.88-.85.68-1.66,1.4-2.4,2.19l2.69-1.8c.9-.59,1.79-1.18,2.7-1.75.9-.57,1.82-1.12,2.76-1.63.94-.51,1.89-.99,2.89-1.41Z"/>
    <path class="cls-5" d="M405.9,176.53c-.71.07-1.41.25-2.08.48-.67.23-1.32.53-1.95.85-.63.33-1.23.7-1.81,1.1-.58.4-1.14.84-1.65,1.34.66-.28,1.28-.6,1.9-.92l1.85-.97c.61-.33,1.23-.64,1.85-.96l1.89-.93Z"/>
  </g>
  <path class="cls-1" d="M449.89,167.66c-1.32-.2-1.93.03-2.46.04-1.05.02-1.95-1.2-.75-3.83,1.76-3.86.06-13.11-.32-20.4-.4-7.73,3.22-15.66,4.3-17.64,3.59-6.56,8.28-13.64,11.06-12.12.66.36,1.65,1.98,2.17,3.83,1.46,5.2,3.46,18.07,3.81,19.63,2.08,8.99.51,15.27.33,21.79-.04,1.41.03,2.53.04,2.81.11,1.74,1.07,6.2,1.16,7.01.27,2.43-.42,4.43-.96,5.99-.98,2.82-3.84,6.72-5.17,6.41-.58-.14-.5-.96-1.09-2.09-2.9-5.58-7.9-10.78-12.13-11.41Z"/>
  <path class="cls-10" d="M447.21,153.43c.09-3.4-.14-6.8-.17-10.15,0-3.29.61-6.56,1.52-9.74.46-1.59,1-3.16,1.61-4.71.31-.77.63-1.54.98-2.27.17-.36.37-.74.56-1.11l.58-1.12c.78-1.49,1.58-2.97,2.42-4.42.84-1.46,1.73-2.89,2.74-4.26-1.3,1.1-2.4,2.43-3.46,3.78-1.03,1.36-2,2.77-2.9,4.22-.46.73-.89,1.43-1.32,2.21-.42.77-.79,1.55-1.14,2.34-.69,1.58-1.28,3.21-1.76,4.87-.47,1.66-.84,3.36-1.06,5.08-.21,1.72-.3,3.47-.14,5.21.3,3.42.9,6.74,1.53,10.09Z"/>
  <path class="cls-2" d="M195.4,327.53h-2.21c-.49,0-.93-.33-1.06-.81l-30.58-129.86c-.32-1.15.55-2.28,1.74-2.28h4.6c.83,0,1.55.56,1.75,1.37l26.83,130.22c.17.69-.35,1.36-1.07,1.36Z"/>
  <path class="cls-2" d="M143.16,327.53h-2.21c-.49,0-.93-.33-1.06-.81l-12.9-129.86c-.32-1.15.55-2.28,1.74-2.28h4.6c.83,0,1.55.56,1.75,1.37l9.15,130.22c.17.69-.35,1.36-1.07,1.36Z"/>
  <path class="cls-2" d="M87.59,327.53h2.21c.49,0,.93-.33,1.06-.81l35.99-129.86c.32-1.15-.55-2.28-1.74-2.28h-4.6c-.83,0-1.55.56-1.75,1.37l-32.24,130.22c-.17.69.35,1.36,1.07,1.36Z"/>
  <path class="cls-1" d="M64.71,122.91c12.25-2.15,57.1-2.51,69.22-1.55,8.92.71,15.44,14.55,28.18,35.61,7.21,11.92,15.72,16.16,17.58,17.2,10.1,5.66,24.18,4.8,31.05,9.51,3.04,2.08,5.23,3.5,7.25,6.74,8.16,13.11,5.33,37.2-4.92,42.71-26.82,14.42-82.97,14.42-97.9,13.26-6.9-.54-26.17-.72-38.23-19.93-4.28-6.81-8.82-37.66-16.02-96.52-.46-3.8.64-6.49,3.78-7.04Z"/>
  <path class="cls-1" d="M357.79,59.37h-69.01c-4.5,0-8.15,3.65-8.15,8.15v23.87c0,4.5,3.65,8.15,8.15,8.15h50.41l9.29,8.49v-8.49h9.3c4.5,0,8.15-3.65,8.15-8.15v-23.87c0-4.5-3.65-8.15-8.15-8.15Z"/>
  <g>
    <path class="cls-7" d="M337.94,88.13c0,.99-.8,1.79-1.79,1.79s-1.79-.8-1.79-1.79.8-1.79,1.79-1.79,1.79.8,1.79,1.79Z"/>
    <path class="cls-7" d="M345.38,88.13c0,.99-.8,1.79-1.79,1.79s-1.79-.8-1.79-1.79.8-1.79,1.79-1.79,1.79.8,1.79,1.79Z"/>
    <path class="cls-7" d="M352.82,88.13c0,.99-.8,1.79-1.79,1.79s-1.79-.8-1.79-1.79.8-1.79,1.79-1.79,1.79.8,1.79,1.79Z"/>
    <path class="cls-7" d="M352.73,72.68h-41.33c-1,0-1.8-.81-1.8-1.8s.81-1.8,1.8-1.8h41.33c1,0,1.8.81,1.8,1.8s-.81,1.8-1.8,1.8Z"/>
    <path class="cls-7" d="M352.73,81.34h-60.12c-1,0-1.8-.81-1.8-1.8s.81-1.8,1.8-1.8h60.12c1,0,1.8.81,1.8,1.8s-.81,1.8-1.8,1.8Z"/>
    <path class="cls-7" d="M329.05,89.95h-36.44c-1,0-1.8-.81-1.8-1.8s.81-1.8,1.8-1.8h36.44c1,0,1.8.81,1.8,1.8s-.81,1.8-1.8,1.8Z"/>
  </g>
  <path class="cls-1" d="M160.15,59.37h73.17c4.77,0,8.64,3.87,8.64,8.64v7.2c0,4.77-3.87,8.64-8.64,8.64h-53.45l-9.85,9v-9h-9.87c-4.77,0-8.64-3.87-8.64-8.64v-7.2c0-4.77,3.87-8.64,8.64-8.64Z"/>
  <g>
    <path class="cls-7" d="M213.57,72.41c0,1.05-.85,1.9-1.9,1.9s-1.9-.85-1.9-1.9.85-1.9,1.9-1.9,1.9.85,1.9,1.9Z"/>
    <circle class="cls-7" cx="219.56" cy="72.41" r="1.9"/>
    <circle class="cls-7" cx="227.45" cy="72.41" r="1.9"/>
    <path class="cls-7" d="M204.14,74.34h-38.64c-1.06,0-1.91-.86-1.91-1.91s.86-1.91,1.91-1.91h38.64c1.06,0,1.91.86,1.91,1.91s-.86,1.91-1.91,1.91Z"/>
  </g>
  <path class="cls-15" d="M221.71,296.75c-1.97,2.36-.31,6.65-2.28,12.89-.76,2.41-1.93,2.71-3.59,7.92-.46,1.45-.97,3.15-.45,5.14.08.3.57,2.11,2.11,3.56,1.99,1.87,4.3,1.78,8.72,2.18,2.78.25,7.07.64,11.7,1.71,3.1.72,4.94,1.41,8.95,1.97,2.99.42,8.84,1.42,11.97-.43,3.66-2.15,4.58-.96,6.39-2.69,2.81-2.68.13-5.18-.5-5.32-2.05-.44-3.39-.84-5.46-.54-1.68.24-2.9-.06-5.36-.68-4.43-1.11-11.92-5.43-14.68-10.06-3-5.03-1.72-10.68-1.56-12.87.45-6.02-12.75-6.63-15.95-2.79Z"/>
  <path class="cls-3" d="M115.36,203.75c-2.57,4.12-2.87,7.44-2.92,8.14-.04.49-.5,8.13,4.61,12.44,3.48,2.94,11.44,3.87,13.82,3.84,17.71-.21,99.16,16.93,108.75-3.27.87-1.84,2.22-5.22.77-7.94-.6-1.13-1.57-2.2-2-2.5-8.37-5.96-30.97-13.14-39.32-15.47-13.22-3.69-23.02-5.37-40.24-7.07-19.81-1.95-24.66-.99-28.88.61-9.75,3.7-13.82,9.97-14.59,11.21Z"/>
  <path class="cls-12" d="M211.52,183.84c1.11-2.15-8.13-12.67-12.67-13.88-1.66-.44-2.6.06-7.21,2.01-3.12,1.32-4.45,1.71-5.82,1.94-1.09.19-2.05.26-2.94.28-7.83.18-16.82-1.67-16.82-1.67-10.67-2.19-18.41-4-19.13-4.13-16.75-2.9-34.87-18.2-35.4-19.61-1.3-3.51-1.42,12.78-1.19,14.08.7,3.96,1.65,9.3,5.78,13.29,2.64,2.55,8.6,3.7,20.41,5.9,9.28,1.73,13.23,1.97,15.42,2.05.79.03,4.34-.1,11.41-.36,8.59-.32,15.82-.6,21.97-1.85,1.63-.33,2.45-.5,3.28-.72,5-1.33,4.62-2.72,6.77-2.25,1.82.4,5.42,3.61,7.62,4.86,0,0,8.43.25,8.53.06Z"/>
  <path class="cls-10" d="M125.06,165.01c4.32-1.77,9.24.37,10.98,4.71,1.53,3.83,3.42,6.52,4.74,8.17,7.09,8.83,17.37,12.99,18.66,13.32,3.88.98,2.2,3.02,1.78,3.04-15.11,1.01-27.56,30.51-33.28,33.79-3.95,2.27-9.36,1.33-12.69-.6-9.23-5.34-8.62-22.5-8.41-29.88.17-5.98,3.67-26.5,18.11-32.51.04-.01.07-.03.11-.04Z"/>
  <path class="cls-12" d="M88.43,104.4c.82-2.27,2.36-3.38,3.84-6.45.54-1.13,1.33-2.7,1.38-6.91.12-8.97-3.27-11.35-1.84-14.44,2.16-4.67,13.48-6.86,19.81-2,5.81,4.47,5.02,13.02,4.3,20.74-.61,6.61-2.76,14.9-6.91,17.97-4.3,3.19-11.81,5.01-16.74,1.08-3.19-2.54-5.13-6.44-3.84-9.98Z"/>
  <path class="cls-10" d="M109.93,209.62c-3.55-2.05-1.85-6.93-5.07-15.67-2.73-7.42-6.01-9.49-12.13-17.82-4.54-6.17-10.6-14.41-13.98-24.88-.61-1.88-6.73-21.79,2.46-38.86,4.32-8.02,8.83-9.5,9.98-9.83,4.77-1.36,9.15.65,11.98,2,1.88.89,7.88,3.99,16.13,16.28,3.67,5.47,8.81,13.27,12.13,25.04,2.86,10.13,2.92,18.07,2.92,25.19,0,14.53,0,23.43-6.14,30.72-4.98,5.92-13.73,10.46-18.28,7.83Z"/>
  <path class="cls-10" d="M119.92,191.8c-2.03.46-4.16-1.6-5.84-3.23-3.35-3.24-4.9-6.68-5.07-7.07-8.9-20.25-10.04-23.65-13.06-29.34-2.19-4.13-3.47-5.88-5.38-10.45-1.99-4.78-3.51-8.52-3.53-13.52-.02-3.37-.05-8.28,3.53-12.29,3.62-4.05,8.55-4.54,9.37-4.61,5.33-.44,9.26,2.31,10.75,3.53,3.86,3.18,5.03,7.74,7.22,16.74,1.86,7.67.77,7.13,2.76,14.75.97,3.69,2.01,6.83,2.46,11.83.24,2.62.07,3.07.15,6.6.29,11.44,2.26,14.63.46,21.04-.59,2.12-1.58,5.48-3.84,5.99Z"/>
  <g>
    <path class="cls-3" d="M119.76,191.8c-.37.1-.77.13-1.16.08-.39-.06-.77-.16-1.13-.32-.73-.31-1.38-.75-2-1.22-.62-.47-1.2-.99-1.77-1.5-.57-.53-1.14-1.06-1.67-1.64-1.06-1.15-2-2.41-2.84-3.74-.21-.33-.41-.67-.6-1.02-.19-.35-.37-.72-.52-1.06l-.97-2.09c-1.31-2.78-2.55-5.58-3.81-8.38-1.25-2.8-2.46-5.62-3.69-8.43-.61-1.41-1.21-2.81-1.83-4.2-.61-1.4-1.26-2.77-1.92-4.13-.67-1.36-1.37-2.71-2.1-4.06l-1.1-2.03c-.36-.68-.71-1.38-1.05-2.08-.67-1.4-1.29-2.83-1.83-4.28-.54-1.44-1.09-2.88-1.56-4.36-.46-1.48-.86-2.99-1.09-4.52-.24-1.53-.31-3.09-.22-4.62.12,1.53.34,3.05.72,4.52.19.74.41,1.46.64,2.18.25.72.51,1.43.8,2.13.56,1.41,1.19,2.8,1.82,4.2.63,1.39,1.27,2.76,2,4.09.72,1.33,1.51,2.63,2.27,3.97.77,1.33,1.53,2.68,2.25,4.06,1.44,2.75,2.67,5.58,3.89,8.4l3.6,8.47c1.17,2.83,2.38,5.65,3.53,8.5l.87,2.13c.15.36.28.69.44,1.02.16.33.32.67.5,1,.71,1.32,1.54,2.58,2.48,3.76.46.6.96,1.16,1.48,1.71.53.56,1.06,1.1,1.61,1.62.56.51,1.14,1,1.8,1.36.33.19.67.33,1.04.43.37.08.75.11,1.13.06Z"/>
    <path class="cls-3" d="M110.55,114.85c.9.62,1.72,1.37,2.43,2.23.71.86,1.3,1.82,1.81,2.8.5,1,.92,2.02,1.31,3.06.38,1.04.71,2.09,1.03,3.14.32,1.05.62,2.1.9,3.16.28,1.06.56,2.1.83,3.17.27,1.07.5,2.15.69,3.24.2,1.09.35,2.2.48,3.28.12,1.08.27,2.12.47,3.17.19,1.05.42,2.1.67,3.15.47,2.1,1.09,4.2,1.5,6.37.21,1.08.4,2.17.53,3.27.13,1.1.21,2.2.26,3.3.04,1.1.02,2.22-.07,3.31l-.23,3.27c-.13-1.09-.21-2.18-.28-3.27-.06-1.09-.15-2.15-.32-3.22-.3-2.14-.73-4.25-1.28-6.32-.28-1.04-.59-2.07-.89-3.12-.31-1.04-.62-2.09-.9-3.16-.29-1.06-.54-2.14-.76-3.23-.22-1.09-.38-2.21-.51-3.29-.12-1.09-.24-2.14-.42-3.19-.17-1.05-.4-2.1-.62-3.16-.45-2.11-.95-4.24-1.42-6.35-.5-2.11-1.01-4.2-1.77-6.2-.38-1-.84-1.96-1.4-2.87-.56-.91-1.24-1.76-2.02-2.53Z"/>
  </g>
  <path class="cls-15" d="M121.15,168.3c.59-2.79.39-3.95,1.54-5.99,1.75-3.13,4.21-3.57,6.91-5.99,10.88-9.76,17-24.4,21.2-26,2.61-1,8.16-2.99,8.29-2.26.12.65.52,2.28,1.23,2.92,1.54,1.38-7.19,13.8-8.45,14.9-.51.44-.76.92-.92,1.23-2.68,5.17-4.02,7.76-4.3,8.6-.88,2.64-2.74,6.57-6.45,14.44,0,0-8.95,18.96-17.97,21.97-.45.15-1.17.34-2,.15-2.83-.64-4.94-5.27-4.92-9.37.03-5.64,4.08-6.22,5.84-14.59Z"/>
  <path class="cls-15" d="M102.56,51.57c8.02-2.05,14.58,1.85,16.9,3.23,1.31.78,5.78,3.56,9.06,9.06,1.98,3.32,4.08,8.55,3.38,11.06-.08.28-.44,1.42-.31,2.92.06.63.19,1.14.46,2,.84,2.69,1.46,3.92,2.46,6.3.23.56.73,1.28.46,2-.22.57-.79,1.01-.92,1.08-1.03.48-2.46.21-3.07.61-1.38.92-1.08,6.45-3.07,10.14-1.4,2.58-1.88,4.87-4.92,3.84-7.68-2.61-11.52-6.91-13.52-10.6-.75-1.39-.59-4.32-.46-5.38,1.84-15.21-8.65-35.69-6.45-36.25Z"/>
  <path class="cls-3" d="M191.34,205.65c3.44,5.78,24.68,20.55,22.04,43.21-2.66,22.84,4.05,58.87,4.05,58.87,0,0,22.06,2.51,28.18-3.89.39-.41.05-1.25-.06-2.01-.23-1.68-.78-11.62-1.03-18.75-.11-3.04-.23-6.69-.37-10.99-.74-22.13,2.21-27.4,1.09-42.48-.06-.83-.72-12.34-8.41-15.91-15.92-7.38-47.59-11.58-45.49-8.05Z"/>
  <path class="cls-6" d="M130.58,74.25c-.47.02-.96-.03-1.42-.16-.46-.14-.86-.39-1.23-.64-.18-.12-.37-.24-.55-.35-.2-.12-.34-.2-.52-.27-.7-.29-1.52-.41-2.32-.3-.4.05-.79.18-1.17.35-.37.18-.73.41-1.05.7l-.11-.1c.13-.18.27-.35.43-.52.16-.16.33-.31.51-.45.37-.28.79-.49,1.23-.64.45-.15.92-.23,1.39-.25.48-.02.96.04,1.43.16.24.06.49.16.69.23.21.08.42.15.63.22.42.13.81.25,1.16.4.36.16.71.32,1.1.5.38.19.27,1.1-.21,1.13Z"/>
  <path class="cls-6" d="M125.1,77.51c.47-.17.91-.28,1.34-.4.43-.12.84-.23,1.24-.35.41-.12.8-.26,1.21-.41.41-.15.82-.32,1.3-.48-.19.47-.52.85-.91,1.16-.39.31-.84.54-1.31.68-.47.14-.97.2-1.46.18-.49-.03-.97-.14-1.41-.38Z"/>
  <path class="cls-13" d="M95.65,53.17c.24-.9.92-1.37,4.12-2.29,1.25-.36,4.27-.91,6.71-.91,5.19,0,11.89,2.59,11.89,2.59,7.14,2.89,9.17,5.86,9.6,6.56.4.64,1.32,2.32.76,3.05-.2.26-.5.45-.76.3-.32-.17.04-.75,0-1.07-.19-1.41-3.43-2.79-7.32-3.05-2.29-.15-4.29,0-6.86,0-8.43.03-15.4-1.81-16.46-2.44-.94-.55-1.93-1.77-1.68-2.74Z"/>
  <path class="cls-13" d="M102.71,52.95c1.81-.13,4.96-.33,8.6,1.08,2.07.8,5.56,1.97,6.76,5.22,2.07,5.61-3.31,10.06-3.23,12.9.01.43.04.77.08,1.02.17,1.24-.53,1.48-.72,1.55-.57.23-1.33.31-1.82.19-.75-.19-.73-.9-1.08-1.54-1.11-2.01-1.2-3.88-3.23-3.84-3.44.07-3.15,2.07-3.99,4.15-.47,1.16.08,3.46-2.76,9.98-2.48,5.7-7.61,7.39-8.45,6.76-.47-.36-.31-1.11-.31-2.15,0-1.69-.56-3.12-1.69-5.99-1.43-3.64-2.29-3.6-3.38-6.3-1.57-3.89-1.22-7.47-1.08-8.76.21-1.91.69-6.21,3.99-9.68,3.8-3.99,8.93-4.36,12.29-4.61Z"/>
  <path class="cls-6" d="M129.45,77.59c0,.6-.41,1.09-.91,1.09s-.91-.49-.91-1.09.41-1.09.91-1.09.91.49.91,1.09Z"/>
  <path class="cls-15" d="M111.01,71.53c-.18-.62-.5-1.56-1.38-2.15-.95-.64-2.03-.5-2.3-.46-1.12.18-1.8.87-2.15,1.23-.99,1.01-1.25,2.17-1.38,2.76-.51,2.38.42,4.34.77,5.07.78,1.64,1.83,2.55,2.61,3.23,1.26,1.09,1.98,1.23,2.46,1.23.51,0,.96-.16,1.23-.31,2.77-1.54.33-10,.15-10.6Z"/>
  <path class="cls-15" d="M188.17,182.98c1.27-.09,3.18-.14,5.43-1.08.89-.37,3.27-1.36,4.74-2.7.19-.18.75-.7,1.64-1,.55-.19.99-.2,1.43-.23,2.05-.1,3.07-.14,3.64-.24,1.89-.34,2.58-1.04,2.76-1.25.44-.49.52-.89.54-1.07,0-.05.09-.83-.39-1.29-.48-.45-1.25-.33-1.72-.27-1.52.21-3.06.09-4.58.19-1.09.07-2.27.37-4.28.36-3.03-.01-3.05,0-4.1.05-3.2.19-4.99.63-6.08,1.21-1.79.95-2.86,1.83-3.35,3.09-.4,1.03-.44,4.55,4.31,4.21Z"/>
  <g>
    <path class="cls-1" d="M218.7,310.65c.92.09-.59,2.27,1.45,4.51,1.62,1.77,3.8,2.18,4.47,2.29,2.42.41,4.31-.37,5.06-.7,2.35-1.01,3.91-2.78,5.85-5,1.92-2.18,2.63-3.51,3.59-3.34.81.14,1.12,1.21,1.66,2.26.94,1.82,2.55,2.98,5.75,5.3,1.16.84,10.05,7.43,19.41,7.12,4.31-.14,3.71,4.6,3.7,4.72-.12.9-.59,2.52-3.23,4.46-3.78,2.79-8.11,3.39-11.27,3.63-2.69.21-4.86.2-17.41-.92-13.53-1.21-11.85-1.26-12.54-1.25-.53.01-3.72-.46-10.1-1.41-.48-.07-1.63-.26-2.24-1.15-.32-.47-.4-1.01-.35-2.06.09-1.93.53-3.05.79-4.3.36-1.69,0-1.67.23-4.12.06-.64.37-2.88,1.94-6.54.71-1.65,2.51-3.59,3.22-3.53Z"/>
    <path class="cls-11" d="M267.38,326.28c-1.69,1.43-3.74,2.45-5.87,3.12-2.15.66-4.38.97-6.6,1.14-1.12.08-2.25.09-3.36.06-1.11-.03-2.22-.08-3.33-.14-2.21-.13-4.41-.31-6.61-.49-2.2-.2-4.4-.4-6.6-.62-2.2-.24-4.39-.46-6.59-.75l-1.65-.23-.83-.13c-.07-.01-.14-.02-.18-.03-.02,0-.04,0-.07,0h-.09c-.18,0-.32-.02-.46-.04-1.12-.16-2.2-.35-3.29-.54-2.17-.4-4.34-.82-6.51-1.28,2.2.18,4.4.42,6.6.65,1.09.12,2.2.25,3.28.33.13,0,.27.01.36.01h.11s.09,0,.14,0c.1,0,.17.02.23.03l.81.09,1.64.15,13.19,1.09c2.2.2,4.39.38,6.59.56,2.19.18,4.39.34,6.55.29,2.18-.08,4.36-.25,6.48-.75,2.12-.48,4.17-1.31,6.04-2.5Z"/>
    <g>
      <path class="cls-11" d="M241.04,319.24c.08-.58.25-1.14.46-1.7.11-.28.24-.55.37-.82.14-.26.3-.52.46-.78.17-.25.33-.52.51-.77.18-.25.41-.46.68-.62.54-.3,1.17-.5,1.89-.37l.08.15c-.27.67-.58,1.11-.91,1.52-.31.42-.83.61-1.23.97-.39.35-.77.74-1.13,1.15-.38.41-.69.86-1.02,1.33l-.16-.06Z"/>
      <path class="cls-11" d="M244.6,321.31c.08-.58.25-1.14.46-1.7.22-.55.49-1.09.83-1.59.17-.25.33-.52.51-.77.18-.26.41-.46.68-.62.54-.31,1.17-.49,1.89-.37l.08.15c-.26.68-.58,1.11-.91,1.52-.16.21-.36.36-.58.51-.23.14-.45.29-.65.46-.2.18-.39.36-.58.55-.19.19-.38.39-.56.6-.37.41-.7.86-1.02,1.33l-.16-.06Z"/>
      <path class="cls-11" d="M248.17,323.38c.08-.58.25-1.14.46-1.7.22-.55.49-1.09.83-1.59.17-.25.33-.52.51-.77.18-.26.41-.46.68-.62.54-.31,1.17-.49,1.89-.37l.08.15c-.26.68-.58,1.11-.91,1.52-.16.21-.36.36-.58.51-.23.14-.45.29-.65.46-.2.18-.39.36-.58.55-.19.19-.38.39-.56.6-.37.41-.7.86-1.02,1.33l-.16-.06Z"/>
      <path class="cls-11" d="M251.74,325.44c.08-.58.25-1.14.46-1.7.22-.55.49-1.09.83-1.59.17-.25.33-.52.51-.77.18-.26.41-.46.68-.62.54-.31,1.17-.49,1.89-.37l.08.15c-.26.68-.58,1.11-.91,1.52-.16.21-.36.36-.58.51-.23.14-.45.29-.65.46-.2.18-.39.36-.58.55-.19.19-.38.39-.56.6-.37.41-.69.86-1.02,1.33l-.16-.06Z"/>
    </g>
  </g>
  <path class="cls-2" d="M466.17,192.81H155.73c-2.7,0-4.89-2.19-4.89-4.89h0c0-2.7,2.19-4.89,4.89-4.89h310.44c2.7,0,4.89,2.19,4.89,4.89h0c0,2.7-2.19,4.89-4.89,4.89Z"/>
  <path class="cls-2" d="M156.4,327.46h2.41c.54,0,1.01-.35,1.15-.86l33.35-138.93c.35-1.23-.59-2.44-1.89-2.44h-5.02c-.9,0-1.69.6-1.91,1.46l-29.26,139.32c-.19.74.38,1.46,1.16,1.46Z"/>
  <path class="cls-2" d="M463.41,327.46h-2.41c-.54,0-1.01-.35-1.15-.86l-33.35-138.93c-.35-1.23.59-2.44,1.89-2.44h5.02c.9,0,1.69.6,1.91,1.46l29.26,139.32c.19.74-.38,1.46-1.16,1.46Z"/>
  <path class="cls-15" d="M152.09,115.86c.65-.1,1.4.88,1.69,1.68.36.97.11,1.87-.05,2.42-.36,1.25-.51,1.67-1.33,3.46-.37.81-.76,1.67-.5,1.89.22.19.83-.2,2.01-.97,2.2-1.43,4.07-3.54,6.37-6.21,4.11-4.77,5.53-5.89,6.71-6.13.26-.05,1.05-.22,1.42.22.24.29.19.7.18.76-.06.45-.43.71-.52.85-.52.85.43-.38,1.35-.73.23-.09,1.1-.42,1.78.05.35.24.66.69.6,1.14-.06.48-.55.75-.67.89-1.26,1.43-1.12,1.74-4.4,6.37-.88,1.25-1.68,2.04-1.57,2.15.09.09,2.08-2.08,2.58-2.96.55-.98,1.47-2.59,2.92-2.88.08-.02,1.24-.23,1.7.39.22.3.19.67.18.76-.05.68-.61,1.15-.8,1.32-.38.33-1.14,1.54-2.66,3.94-.92,1.45-4.24,4.72-4.47,5.43-.05.17-.15.48,0,.64.24.26.97-.06,1.82-.44,2.28-1.03,3.41-1.54,3.97-1.85.68-.38,1.38-.78,2.41-.99.7-.14,1.23-.12,1.57.18.04.04.3.26.3.57,0,.42-.38,1.17-2.9,2.63-2.35,1.37-2.71,1.4-4.11,2.28-.81.51-.67.49-2.26,1.6-2.04,1.41-2.13,1.35-3.46,2.29-2.69,1.88-6.31,4.45-7.06,5.01-.55.41-1.8,1.41-2.94,3.13-1.66,2.5-1.03,3.42-2.07,4.04-1.81,1.07-5.15-.89-6.89-2.91-.71-.82-2.03-2.4.41-7.25.93-1.84,1.08-2.72,1.18-3.42.14-1.02.39-4.84,1.28-6.98.69-1.67,1.35-2.94,1.75-3.72.84-1.63,1.03-1.8,1.76-3.32.82-1.71,1.27-2.72,1.27-2.72.86-1.96.99-2.53,1.46-2.6Z"/>
  <path class="cls-16" d="M129.74,93.42c-.46.17-1.07.36-1.93.35-1.35,0-2.5-.46-2.7-.07-.04.09-.07.21.03.35.99,1.47,2.58,2.27,3.86,2.54.28-1.1.54-2.05.75-3.18Z"/>
</svg>