<svg xmlns="http://www.w3.org/2000/svg" xmlns:xlink="http://www.w3.org/1999/xlink" width="7937" zoomAndPan="magnify" viewBox="0 0 5952.75 1148.25001" height="1530" preserveAspectRatio="xMidYMid meet" version="1.0"><defs><g/><clipPath id="ba05b9d773"><path d="M 1.816406 0 L 5950.683594 0 L 5950.683594 1147.5 L 1.816406 1147.5 Z M 1.816406 0 " clip-rule="nonzero"/></clipPath></defs><g clip-path="url(#ba05b9d773)"><path fill="#ffffff" d="M 1.816406 0 L 5950.929688 0 L 5950.929688 1155.042969 L 1.816406 1155.042969 Z M 1.816406 0 " fill-opacity="1" fill-rule="nonzero"/><path fill="#ffffff" d="M 1.816406 0 L 5950.929688 0 L 5950.929688 1147.546875 L 1.816406 1147.546875 Z M 1.816406 0 " fill-opacity="1" fill-rule="nonzero"/><path fill="#14317b" d="M 1.816406 0 L 5950.929688 0 L 5950.929688 1147.546875 L 1.816406 1147.546875 Z M 1.816406 0 " fill-opacity="1" fill-rule="nonzero"/></g><g fill="#ffcbcb" fill-opacity="1"><g transform="translate(1323.485561, 717.376473)"><g><path d="M 11.992188 0 L 188.882812 0 C 175.09375 -11.992188 167.898438 -44.371094 167.898438 -74.355469 L 167.898438 -299.21875 L 231.457031 -153.507812 C 238.652344 -149.308594 250.648438 -145.710938 262.039062 -145.710938 C 384.363281 -145.710938 468.3125 -248.25 468.3125 -366.375 C 468.3125 -489.902344 378.96875 -578.644531 226.0625 -578.644531 L 11.992188 -578.644531 C 25.785156 -566.652344 32.980469 -533.671875 32.980469 -503.691406 L 32.980469 -74.953125 C 32.980469 -44.972656 25.785156 -11.992188 11.992188 0 Z M 236.253906 -464.714844 C 302.214844 -464.714844 333.394531 -416.746094 333.394531 -366.375 C 333.394531 -310.011719 307.011719 -260.242188 248.847656 -260.242188 C 206.273438 -260.242188 185.285156 -283.027344 167.898438 -322.003906 L 167.898438 -464.714844 Z M 236.253906 -464.714844 "/></g></g></g><g fill="#ffcbcb" fill-opacity="1"><g transform="translate(1803.791169, 717.376473)"><g><path d="M 225.460938 8.996094 C 287.824219 8.996094 348.988281 -19.789062 384.363281 -75.554688 C 359.78125 -97.742188 329.796875 -128.320312 310.011719 -159.503906 C 301.015625 -143.910156 274.632812 -110.332031 230.859375 -110.332031 C 185.886719 -110.332031 156.503906 -135.515625 146.910156 -178.089844 L 217.066406 -178.089844 C 339.992188 -178.089844 383.164062 -239.253906 383.164062 -299.816406 C 383.164062 -363.378906 322.601562 -428.738281 231.457031 -428.738281 C 88.144531 -428.738281 17.988281 -328.597656 17.988281 -209.871094 C 17.988281 -91.144531 83.949219 8.996094 225.460938 8.996094 Z M 145.710938 -184.6875 C 144.511719 -192.480469 143.910156 -200.878906 143.910156 -209.871094 C 143.910156 -280.628906 193.082031 -318.40625 227.859375 -318.40625 C 253.644531 -318.40625 263.839844 -299.816406 263.839844 -283.625 C 263.839844 -231.457031 203.277344 -195.480469 145.710938 -184.6875 Z M 145.710938 -184.6875 "/></g></g></g><g fill="#ffcbcb" fill-opacity="1"><g transform="translate(2200.148183, 717.376473)"><g><path d="M 0 -305.8125 L 35.378906 -305.8125 L 35.378906 -142.710938 C 35.378906 -46.171875 81.550781 8.996094 170.894531 8.996094 C 209.273438 8.996094 248.25 -4.796875 268.636719 -23.984375 C 262.039062 -50.96875 251.246094 -85.746094 247.648438 -121.726562 C 236.253906 -108.535156 222.464844 -101.339844 203.875 -101.339844 C 173.894531 -101.339844 157.703125 -115.128906 157.703125 -169.695312 L 157.703125 -305.8125 L 248.25 -305.8125 L 248.25 -419.742188 L 157.703125 -419.742188 L 157.703125 -543.867188 L 154.707031 -543.867188 C 121.125 -495.898438 44.371094 -438.332031 0 -419.742188 Z M 0 -305.8125 "/></g></g></g><g fill="#ffcbcb" fill-opacity="1"><g transform="translate(2486.772441, 717.376473)"><g><path d="M 225.460938 8.996094 C 287.824219 8.996094 348.988281 -19.789062 384.363281 -75.554688 C 359.78125 -97.742188 329.796875 -128.320312 310.011719 -159.503906 C 301.015625 -143.910156 274.632812 -110.332031 230.859375 -110.332031 C 185.886719 -110.332031 156.503906 -135.515625 146.910156 -178.089844 L 217.066406 -178.089844 C 339.992188 -178.089844 383.164062 -239.253906 383.164062 -299.816406 C 383.164062 -363.378906 322.601562 -428.738281 231.457031 -428.738281 C 88.144531 -428.738281 17.988281 -328.597656 17.988281 -209.871094 C 17.988281 -91.144531 83.949219 8.996094 225.460938 8.996094 Z M 145.710938 -184.6875 C 144.511719 -192.480469 143.910156 -200.878906 143.910156 -209.871094 C 143.910156 -280.628906 193.082031 -318.40625 227.859375 -318.40625 C 253.644531 -318.40625 263.839844 -299.816406 263.839844 -283.625 C 263.839844 -231.457031 203.277344 -195.480469 145.710938 -184.6875 Z M 145.710938 -184.6875 "/></g></g></g><g fill="#ffcbcb" fill-opacity="1"><g transform="translate(2883.129455, 717.376473)"><g><path d="M -23.984375 -361.578125 L -23.984375 -358.582031 C 33.578125 -358.582031 34.777344 -289.621094 34.777344 -272.832031 L 34.777344 -74.355469 C 34.777344 -44.371094 27.582031 -11.992188 13.792969 0 L 178.691406 0 C 164.898438 -11.992188 157.703125 -44.972656 157.703125 -74.953125 L 157.703125 -266.238281 C 157.703125 -299.21875 179.890625 -317.207031 224.863281 -317.207031 C 256.042969 -317.207031 290.222656 -302.816406 299.816406 -286.023438 C 306.414062 -325.601562 317.207031 -370.574219 328.597656 -407.152344 C 320.804688 -417.34375 294.421875 -428.738281 270.433594 -428.738281 C 207.472656 -428.738281 169.097656 -363.976562 157.703125 -311.210938 L 157.703125 -428.738281 C 117.527344 -404.152344 35.378906 -364.578125 -23.984375 -361.578125 Z M -23.984375 -361.578125 "/></g></g></g><g fill="#ffcbcb" fill-opacity="1"><g transform="translate(3235.713483, 717.376473)"><g/></g></g><g fill="#ffcbcb" fill-opacity="1"><g transform="translate(3415.603151, 717.376473)"><g><path d="M 307.613281 8.996094 C 392.761719 8.996094 468.3125 -14.992188 514.484375 -65.960938 C 494.097656 -115.128906 475.507812 -178.691406 475.507812 -178.691406 C 475.507812 -178.691406 433.535156 -106.136719 329.796875 -106.136719 C 237.453125 -106.136719 155.90625 -166.699219 155.90625 -289.023438 C 155.90625 -412.546875 237.453125 -473.109375 329.796875 -473.109375 C 433.535156 -473.109375 475.507812 -400.554688 475.507812 -400.554688 C 475.507812 -400.554688 494.097656 -464.117188 514.484375 -513.285156 C 468.3125 -564.253906 392.761719 -587.640625 307.613281 -587.640625 C 133.117188 -587.640625 20.988281 -453.921875 20.988281 -289.621094 C 20.988281 -125.324219 133.117188 8.996094 307.613281 8.996094 Z M 307.613281 8.996094 "/></g></g></g><g fill="#ffcbcb" fill-opacity="1"><g transform="translate(3930.08785, 717.376473)"><g><path d="M 5.996094 -360.378906 C 29.382812 -328.597656 46.171875 -302.816406 65.359375 -265.636719 C 87.546875 -299.816406 122.324219 -315.40625 165.5 -315.40625 C 212.871094 -315.40625 247.050781 -287.222656 257.242188 -239.851562 C 238.652344 -248.25 217.667969 -252.445312 194.28125 -252.445312 C 101.9375 -252.445312 16.191406 -185.285156 16.191406 -101.339844 C 16.191406 -40.175781 46.171875 8.996094 121.125 8.996094 C 153.507812 8.996094 179.890625 -10.195312 185.886719 -19.789062 C 203.277344 -47.371094 236.855469 -99.539062 260.242188 -135.515625 L 260.242188 -71.957031 C 260.242188 -35.378906 277.03125 8.996094 307.011719 8.996094 C 322.003906 8.996094 383.765625 -28.78125 430.535156 -53.367188 L 430.535156 -56.367188 C 387.363281 -56.367188 383.164062 -95.339844 383.164062 -128.921875 L 383.164062 -249.449219 C 383.164062 -366.976562 278.828125 -428.738281 164.300781 -428.738281 C 95.941406 -428.738281 43.773438 -404.753906 5.996094 -360.378906 Z M 143.910156 -147.511719 C 143.910156 -184.085938 183.488281 -235.65625 233.855469 -235.65625 C 243.453125 -235.65625 251.847656 -233.257812 259.042969 -229.660156 C 259.640625 -223.664062 260.242188 -217.066406 260.242188 -210.472656 L 260.242188 -157.105469 C 242.851562 -126.523438 214.667969 -107.933594 187.085938 -107.933594 C 154.707031 -107.933594 143.910156 -128.320312 143.910156 -147.511719 Z M 143.910156 -147.511719 "/></g></g></g><g fill="#ffcbcb" fill-opacity="1"><g transform="translate(4342.634863, 717.376473)"><g><path d="M 0 -305.8125 L 35.378906 -305.8125 L 35.378906 -142.710938 C 35.378906 -46.171875 81.550781 8.996094 170.894531 8.996094 C 209.273438 8.996094 248.25 -4.796875 268.636719 -23.984375 C 262.039062 -50.96875 251.246094 -85.746094 247.648438 -121.726562 C 236.253906 -108.535156 222.464844 -101.339844 203.875 -101.339844 C 173.894531 -101.339844 157.703125 -115.128906 157.703125 -169.695312 L 157.703125 -305.8125 L 248.25 -305.8125 L 248.25 -419.742188 L 157.703125 -419.742188 L 157.703125 -543.867188 L 154.707031 -543.867188 C 121.125 -495.898438 44.371094 -438.332031 0 -419.742188 Z M 0 -305.8125 "/></g></g></g><g fill="#ffcbcb" fill-opacity="1"><g transform="translate(906.655123, 940.840361)"><g><path d="M 53.527344 1.6875 C 75.613281 1.6875 93.542969 -11.691406 98.996094 -31.960938 L 86.914062 -31.960938 C 82.238281 -18.320312 69.375 -9.742188 53.914062 -9.742188 C 33.648438 -9.742188 19.226562 -24.425781 19.226562 -45.472656 C 19.226562 -66.519531 33.648438 -81.199219 53.914062 -81.199219 C 68.988281 -81.199219 81.328125 -73.144531 86.003906 -60.023438 L 98.21875 -60.023438 C 92.242188 -80.03125 74.960938 -92.632812 53.527344 -92.632812 C 26.761719 -92.632812 7.535156 -72.882812 7.535156 -45.472656 C 7.535156 -18.058594 26.761719 1.6875 53.527344 1.6875 Z M 53.527344 1.6875 "/></g></g></g><g fill="#ffcbcb" fill-opacity="1"><g transform="translate(1038.651213, 940.840361)"><g><path d="M 54.566406 1.6875 C 82.238281 1.6875 101.726562 -17.796875 101.726562 -45.472656 C 101.726562 -73.144531 82.238281 -92.632812 54.566406 -92.632812 C 26.894531 -92.632812 7.535156 -73.144531 7.535156 -45.472656 C 7.535156 -17.796875 26.894531 1.6875 54.566406 1.6875 Z M 19.226562 -45.472656 C 19.226562 -66.648438 33.648438 -81.199219 54.566406 -81.199219 C 75.480469 -81.199219 89.902344 -66.648438 89.902344 -45.472656 C 89.902344 -24.292969 75.480469 -9.742188 54.566406 -9.742188 C 33.648438 -9.742188 19.226562 -24.292969 19.226562 -45.472656 Z M 19.226562 -45.472656 "/></g></g></g><g fill="#ffcbcb" fill-opacity="1"><g transform="translate(1173.765307, 940.840361)"><g><path d="M 13.25 0 L 24.683594 0 L 24.683594 -38.324219 L 61.972656 -38.324219 L 61.972656 -48.847656 L 24.683594 -48.847656 L 24.683594 -80.289062 L 65.347656 -80.289062 L 65.347656 -90.941406 L 13.25 -90.941406 Z M 13.25 0 "/></g></g></g><g fill="#ffcbcb" fill-opacity="1"><g transform="translate(1272.242905, 940.840361)"><g><path d="M 13.25 0 L 24.683594 0 L 24.683594 -38.324219 L 61.972656 -38.324219 L 61.972656 -48.847656 L 24.683594 -48.847656 L 24.683594 -80.289062 L 65.347656 -80.289062 L 65.347656 -90.941406 L 13.25 -90.941406 Z M 13.25 0 "/></g></g></g><g fill="#ffcbcb" fill-opacity="1"><g transform="translate(1370.720503, 940.840361)"><g><path d="M 13.25 0 L 69.894531 0 L 69.894531 -10.652344 L 24.683594 -10.652344 L 24.683594 -41.054688 L 65.21875 -41.054688 L 65.21875 -51.578125 L 24.683594 -51.578125 L 24.683594 -80.289062 L 68.46875 -80.289062 L 68.46875 -90.941406 L 13.25 -90.941406 Z M 13.25 0 "/></g></g></g><g fill="#ffcbcb" fill-opacity="1"><g transform="translate(1475.044335, 940.840361)"><g><path d="M 13.25 0 L 69.894531 0 L 69.894531 -10.652344 L 24.683594 -10.652344 L 24.683594 -41.054688 L 65.21875 -41.054688 L 65.21875 -51.578125 L 24.683594 -51.578125 L 24.683594 -80.289062 L 68.46875 -80.289062 L 68.46875 -90.941406 L 13.25 -90.941406 Z M 13.25 0 "/></g></g></g><g fill="#ffcbcb" fill-opacity="1"><g transform="translate(1579.368167, 940.840361)"><g/></g></g><g fill="#ffcbcb" fill-opacity="1"><g transform="translate(1637.571571, 940.840361)"><g><path d="M 15.980469 17.667969 L 26.242188 17.667969 L 26.242188 -103.933594 L 15.980469 -103.933594 Z M 15.980469 17.667969 "/></g></g></g><g fill="#ffcbcb" fill-opacity="1"><g transform="translate(1705.778595, 940.840361)"><g/></g></g><g fill="#ffcbcb" fill-opacity="1"><g transform="translate(1763.982, 940.840361)"><g><path d="M 43.523438 1.6875 C 63.398438 1.6875 76.261719 -8.054688 76.261719 -23.90625 C 76.261719 -37.285156 67.296875 -45.339844 44.042969 -51.058594 C 26.375 -55.34375 20.527344 -60.023438 20.527344 -67.558594 C 20.527344 -76.261719 28.320312 -81.71875 41.3125 -81.71875 C 54.695312 -81.71875 63.011719 -74.960938 63.269531 -64.050781 L 74.574219 -64.050781 C 74.441406 -81.71875 61.710938 -92.632812 41.3125 -92.632812 C 21.4375 -92.632812 8.835938 -82.886719 8.835938 -67.558594 C 8.835938 -53.527344 18.839844 -45.730469 41.183594 -40.40625 C 57.554688 -36.507812 64.4375 -31.960938 64.4375 -23.515625 C 64.4375 -14.550781 56.382812 -9.222656 43.523438 -9.222656 C 29.363281 -9.222656 19.488281 -16.238281 19.226562 -27.933594 L 7.796875 -27.933594 C 7.925781 -10.132812 21.828125 1.6875 43.523438 1.6875 Z M 43.523438 1.6875 "/></g></g></g><g fill="#ffcbcb" fill-opacity="1"><g transform="translate(1874.022186, 940.840361)"><g><path d="M 2.207031 0 L 14.421875 0 L 22.734375 -20.65625 L 67.039062 -20.65625 L 75.613281 0 L 87.695312 0 L 50.277344 -90.941406 L 39.625 -90.941406 Z M 27.152344 -31.308594 L 44.953125 -74.960938 L 62.75 -31.308594 Z M 27.152344 -31.308594 "/></g></g></g><g fill="#ffcbcb" fill-opacity="1"><g transform="translate(1989.908652, 940.840361)"><g><path d="M 13.25 0 L 24.554688 0 L 24.554688 -71.195312 L 74.832031 0 L 85.484375 0 L 85.484375 -90.941406 L 74.3125 -90.941406 L 74.3125 -19.746094 L 24.035156 -90.941406 L 13.25 -90.941406 Z M 13.25 0 "/></g></g></g><g fill="#ffcbcb" fill-opacity="1"><g transform="translate(2114.629409, 940.840361)"><g><path d="M 13.25 0 L 44.691406 0 C 72.625 0 91.332031 -18.578125 91.332031 -45.472656 C 91.332031 -72.363281 72.625 -90.941406 44.691406 -90.941406 L 13.25 -90.941406 Z M 24.683594 -10.914062 L 24.683594 -80.03125 L 44.171875 -80.03125 C 65.347656 -80.03125 79.640625 -66.128906 79.640625 -45.472656 C 79.640625 -24.8125 65.480469 -10.914062 44.691406 -10.914062 Z M 24.683594 -10.914062 "/></g></g></g><g fill="#ffcbcb" fill-opacity="1"><g transform="translate(2239.480091, 940.840361)"><g><path d="M 31.960938 0 L 42.613281 0 L 69.894531 -73.664062 L 84.964844 -33.128906 L 97.308594 0 L 107.960938 0 L 137.582031 -90.941406 L 125.628906 -90.941406 L 102.246094 -18.1875 L 75.351562 -90.941406 L 64.570312 -90.941406 L 37.675781 -18.320312 L 27.023438 -51.707031 L 14.421875 -90.941406 L 2.46875 -90.941406 Z M 31.960938 0 "/></g></g></g><g fill="#ffcbcb" fill-opacity="1"><g transform="translate(2405.514397, 940.840361)"><g><path d="M 13.25 0 L 24.683594 0 L 24.683594 -90.941406 L 13.25 -90.941406 Z M 13.25 0 "/></g></g></g><g fill="#ffcbcb" fill-opacity="1"><g transform="translate(2469.434063, 940.840361)"><g><path d="M 53.527344 1.6875 C 75.613281 1.6875 93.542969 -11.691406 98.996094 -31.960938 L 86.914062 -31.960938 C 82.238281 -18.320312 69.375 -9.742188 53.914062 -9.742188 C 33.648438 -9.742188 19.226562 -24.425781 19.226562 -45.472656 C 19.226562 -66.519531 33.648438 -81.199219 53.914062 -81.199219 C 68.988281 -81.199219 81.328125 -73.144531 86.003906 -60.023438 L 98.21875 -60.023438 C 92.242188 -80.03125 74.960938 -92.632812 53.527344 -92.632812 C 26.761719 -92.632812 7.535156 -72.882812 7.535156 -45.472656 C 7.535156 -18.058594 26.761719 1.6875 53.527344 1.6875 Z M 53.527344 1.6875 "/></g></g></g><g fill="#ffcbcb" fill-opacity="1"><g transform="translate(2601.430093, 940.840361)"><g><path d="M 72.882812 0 L 84.316406 0 L 84.316406 -90.941406 L 72.882812 -90.941406 L 72.882812 -51.835938 L 24.683594 -51.835938 L 24.683594 -90.941406 L 13.25 -90.941406 L 13.25 0 L 24.683594 0 L 24.683594 -40.925781 L 72.882812 -40.925781 Z M 72.882812 0 "/></g></g></g><g fill="#ffcbcb" fill-opacity="1"><g transform="translate(2724.981521, 940.840361)"><g><path d="M 13.25 0 L 69.894531 0 L 69.894531 -10.652344 L 24.683594 -10.652344 L 24.683594 -41.054688 L 65.21875 -41.054688 L 65.21875 -51.578125 L 24.683594 -51.578125 L 24.683594 -80.289062 L 68.46875 -80.289062 L 68.46875 -90.941406 L 13.25 -90.941406 Z M 13.25 0 "/></g></g></g><g fill="#ffcbcb" fill-opacity="1"><g transform="translate(2829.305262, 940.840361)"><g><path d="M 43.523438 1.6875 C 63.398438 1.6875 76.261719 -8.054688 76.261719 -23.90625 C 76.261719 -37.285156 67.296875 -45.339844 44.042969 -51.058594 C 26.375 -55.34375 20.527344 -60.023438 20.527344 -67.558594 C 20.527344 -76.261719 28.320312 -81.71875 41.3125 -81.71875 C 54.695312 -81.71875 63.011719 -74.960938 63.269531 -64.050781 L 74.574219 -64.050781 C 74.441406 -81.71875 61.710938 -92.632812 41.3125 -92.632812 C 21.4375 -92.632812 8.835938 -82.886719 8.835938 -67.558594 C 8.835938 -53.527344 18.839844 -45.730469 41.183594 -40.40625 C 57.554688 -36.507812 64.4375 -31.960938 64.4375 -23.515625 C 64.4375 -14.550781 56.382812 -9.222656 43.523438 -9.222656 C 29.363281 -9.222656 19.488281 -16.238281 19.226562 -27.933594 L 7.796875 -27.933594 C 7.925781 -10.132812 21.828125 1.6875 43.523438 1.6875 Z M 43.523438 1.6875 "/></g></g></g><g fill="#ffcbcb" fill-opacity="1"><g transform="translate(2939.345356, 940.840361)"><g/></g></g><g fill="#ffcbcb" fill-opacity="1"><g transform="translate(2997.548852, 940.840361)"><g><path d="M 15.980469 17.667969 L 26.242188 17.667969 L 26.242188 -103.933594 L 15.980469 -103.933594 Z M 15.980469 17.667969 "/></g></g></g><g fill="#ffcbcb" fill-opacity="1"><g transform="translate(3065.755876, 940.840361)"><g/></g></g><g fill="#ffcbcb" fill-opacity="1"><g transform="translate(3123.959372, 940.840361)"><g><path d="M 13.25 0 L 50.148438 0 C 68.46875 0 79.898438 -9.742188 79.898438 -25.464844 C 79.898438 -35.726562 74.832031 -43.394531 65.480469 -47.160156 C 72.882812 -50.929688 77.300781 -57.945312 77.300781 -66.777344 C 77.300781 -81.457031 65.867188 -90.941406 48.460938 -90.941406 L 13.25 -90.941406 Z M 24.683594 -10.652344 L 24.683594 -41.183594 L 49.757812 -41.183594 C 61.582031 -41.183594 68.207031 -35.597656 68.207031 -25.984375 C 68.207031 -16.238281 61.582031 -10.652344 49.886719 -10.652344 Z M 24.683594 -51.578125 L 24.683594 -80.289062 L 48.199219 -80.289062 C 59.242188 -80.289062 65.609375 -75.09375 65.609375 -65.867188 C 65.609375 -56.773438 59.371094 -51.578125 48.199219 -51.578125 Z M 24.683594 -51.578125 "/></g></g></g><g fill="#ffcbcb" fill-opacity="1"><g transform="translate(3237.117495, 940.840361)"><g><path d="M 13.25 0 L 24.683594 0 L 24.683594 -32.609375 L 44.691406 -32.609375 L 66.90625 0 L 80.679688 0 L 57.8125 -33.777344 C 71.066406 -37.027344 79.25 -47.03125 79.25 -61.710938 C 79.25 -79.769531 66.777344 -90.941406 47.941406 -90.941406 L 13.25 -90.941406 Z M 24.683594 -43.523438 L 24.683594 -80.03125 L 46.640625 -80.03125 C 59.890625 -80.03125 67.558594 -73.273438 67.558594 -61.710938 C 67.558594 -50.148438 59.890625 -43.523438 46.640625 -43.523438 Z M 24.683594 -43.523438 "/></g></g></g><g fill="#ffcbcb" fill-opacity="1"><g transform="translate(3351.574873, 940.840361)"><g><path d="M 47.289062 1.558594 C 69.246094 1.558594 82.496094 -12.863281 82.496094 -37.027344 L 82.496094 -90.941406 L 71.066406 -90.941406 L 71.066406 -37.804688 C 71.066406 -19.226562 62.878906 -9.613281 47.289062 -9.613281 C 31.828125 -9.613281 23.515625 -19.226562 23.515625 -37.804688 L 23.515625 -90.941406 L 12.210938 -90.941406 L 12.210938 -37.027344 C 12.210938 -12.863281 25.335938 1.558594 47.289062 1.558594 Z M 47.289062 1.558594 "/></g></g></g><g fill="#ffcbcb" fill-opacity="1"><g transform="translate(3472.268306, 940.840361)"><g><path d="M 13.25 0 L 24.554688 0 L 24.554688 -71.195312 L 74.832031 0 L 85.484375 0 L 85.484375 -90.941406 L 74.3125 -90.941406 L 74.3125 -19.746094 L 24.035156 -90.941406 L 13.25 -90.941406 Z M 13.25 0 "/></g></g></g><g fill="#ffcbcb" fill-opacity="1"><g transform="translate(3596.989063, 940.840361)"><g><path d="M 53.527344 1.6875 C 75.613281 1.6875 93.542969 -11.691406 98.996094 -31.960938 L 86.914062 -31.960938 C 82.238281 -18.320312 69.375 -9.742188 53.914062 -9.742188 C 33.648438 -9.742188 19.226562 -24.425781 19.226562 -45.472656 C 19.226562 -66.519531 33.648438 -81.199219 53.914062 -81.199219 C 68.988281 -81.199219 81.328125 -73.144531 86.003906 -60.023438 L 98.21875 -60.023438 C 92.242188 -80.03125 74.960938 -92.632812 53.527344 -92.632812 C 26.761719 -92.632812 7.535156 -72.882812 7.535156 -45.472656 C 7.535156 -18.058594 26.761719 1.6875 53.527344 1.6875 Z M 53.527344 1.6875 "/></g></g></g><g fill="#ffcbcb" fill-opacity="1"><g transform="translate(3728.985093, 940.840361)"><g><path d="M 72.882812 0 L 84.316406 0 L 84.316406 -90.941406 L 72.882812 -90.941406 L 72.882812 -51.835938 L 24.683594 -51.835938 L 24.683594 -90.941406 L 13.25 -90.941406 L 13.25 0 L 24.683594 0 L 24.683594 -40.925781 L 72.882812 -40.925781 Z M 72.882812 0 "/></g></g></g><g fill="#ffcbcb" fill-opacity="1"><g transform="translate(3852.536521, 940.840361)"><g/></g></g><g fill="#ffcbcb" fill-opacity="1"><g transform="translate(3910.740017, 940.840361)"><g><path d="M 15.980469 17.667969 L 26.242188 17.667969 L 26.242188 -103.933594 L 15.980469 -103.933594 Z M 15.980469 17.667969 "/></g></g></g><g fill="#ffcbcb" fill-opacity="1"><g transform="translate(3978.946858, 940.840361)"><g/></g></g><g fill="#ffcbcb" fill-opacity="1"><g transform="translate(4037.15017, 940.840361)"><g><path d="M 43.523438 1.6875 C 63.398438 1.6875 76.261719 -8.054688 76.261719 -23.90625 C 76.261719 -37.285156 67.296875 -45.339844 44.042969 -51.058594 C 26.375 -55.34375 20.527344 -60.023438 20.527344 -67.558594 C 20.527344 -76.261719 28.320312 -81.71875 41.3125 -81.71875 C 54.695312 -81.71875 63.011719 -74.960938 63.269531 -64.050781 L 74.574219 -64.050781 C 74.441406 -81.71875 61.710938 -92.632812 41.3125 -92.632812 C 21.4375 -92.632812 8.835938 -82.886719 8.835938 -67.558594 C 8.835938 -53.527344 18.839844 -45.730469 41.183594 -40.40625 C 57.554688 -36.507812 64.4375 -31.960938 64.4375 -23.515625 C 64.4375 -14.550781 56.382812 -9.222656 43.523438 -9.222656 C 29.363281 -9.222656 19.488281 -16.238281 19.226562 -27.933594 L 7.796875 -27.933594 C 7.925781 -10.132812 21.828125 1.6875 43.523438 1.6875 Z M 43.523438 1.6875 "/></g></g></g><g fill="#ffcbcb" fill-opacity="1"><g transform="translate(4147.190448, 940.840361)"><g><path d="M 13.25 0 L 24.683594 0 L 24.683594 -69.636719 L 54.824219 -24.164062 L 64.179688 -24.164062 L 94.320312 -69.507812 L 94.320312 0 L 105.753906 0 L 105.753906 -90.941406 L 95.101562 -90.941406 L 59.632812 -37.027344 L 23.90625 -90.941406 L 13.25 -90.941406 Z M 13.25 0 "/></g></g></g><g fill="#ffcbcb" fill-opacity="1"><g transform="translate(4292.178114, 940.840361)"><g><path d="M 54.566406 1.6875 C 82.238281 1.6875 101.726562 -17.796875 101.726562 -45.472656 C 101.726562 -73.144531 82.238281 -92.632812 54.566406 -92.632812 C 26.894531 -92.632812 7.535156 -73.144531 7.535156 -45.472656 C 7.535156 -17.796875 26.894531 1.6875 54.566406 1.6875 Z M 19.226562 -45.472656 C 19.226562 -66.648438 33.648438 -81.199219 54.566406 -81.199219 C 75.480469 -81.199219 89.902344 -66.648438 89.902344 -45.472656 C 89.902344 -24.292969 75.480469 -9.742188 54.566406 -9.742188 C 33.648438 -9.742188 19.226562 -24.292969 19.226562 -45.472656 Z M 19.226562 -45.472656 "/></g></g></g><g fill="#ffcbcb" fill-opacity="1"><g transform="translate(4427.292178, 940.840361)"><g><path d="M 54.566406 1.6875 C 82.238281 1.6875 101.726562 -17.796875 101.726562 -45.472656 C 101.726562 -73.144531 82.238281 -92.632812 54.566406 -92.632812 C 26.894531 -92.632812 7.535156 -73.144531 7.535156 -45.472656 C 7.535156 -17.796875 26.894531 1.6875 54.566406 1.6875 Z M 19.226562 -45.472656 C 19.226562 -66.648438 33.648438 -81.199219 54.566406 -81.199219 C 75.480469 -81.199219 89.902344 -66.648438 89.902344 -45.472656 C 89.902344 -24.292969 75.480469 -9.742188 54.566406 -9.742188 C 33.648438 -9.742188 19.226562 -24.292969 19.226562 -45.472656 Z M 19.226562 -45.472656 "/></g></g></g><g fill="#ffcbcb" fill-opacity="1"><g transform="translate(4562.406242, 940.840361)"><g><path d="M 35.207031 0 L 46.640625 0 L 46.640625 -80.03125 L 77.300781 -80.03125 L 77.300781 -90.941406 L 4.417969 -90.941406 L 4.417969 -80.03125 L 35.207031 -80.03125 Z M 35.207031 0 "/></g></g></g><g fill="#ffcbcb" fill-opacity="1"><g transform="translate(4670.237787, 940.840361)"><g><path d="M 72.882812 0 L 84.316406 0 L 84.316406 -90.941406 L 72.882812 -90.941406 L 72.882812 -51.835938 L 24.683594 -51.835938 L 24.683594 -90.941406 L 13.25 -90.941406 L 13.25 0 L 24.683594 0 L 24.683594 -40.925781 L 72.882812 -40.925781 Z M 72.882812 0 "/></g></g></g><g fill="#ffcbcb" fill-opacity="1"><g transform="translate(4793.789215, 940.840361)"><g><path d="M 13.25 0 L 24.683594 0 L 24.683594 -90.941406 L 13.25 -90.941406 Z M 13.25 0 "/></g></g></g><g fill="#ffcbcb" fill-opacity="1"><g transform="translate(4857.708882, 940.840361)"><g><path d="M 13.25 0 L 69.894531 0 L 69.894531 -10.652344 L 24.683594 -10.652344 L 24.683594 -41.054688 L 65.21875 -41.054688 L 65.21875 -51.578125 L 24.683594 -51.578125 L 24.683594 -80.289062 L 68.46875 -80.289062 L 68.46875 -90.941406 L 13.25 -90.941406 Z M 13.25 0 "/></g></g></g><g fill="#ffcbcb" fill-opacity="1"><g transform="translate(4962.032805, 940.840361)"><g><path d="M 43.523438 1.6875 C 63.398438 1.6875 76.261719 -8.054688 76.261719 -23.90625 C 76.261719 -37.285156 67.296875 -45.339844 44.042969 -51.058594 C 26.375 -55.34375 20.527344 -60.023438 20.527344 -67.558594 C 20.527344 -76.261719 28.320312 -81.71875 41.3125 -81.71875 C 54.695312 -81.71875 63.011719 -74.960938 63.269531 -64.050781 L 74.574219 -64.050781 C 74.441406 -81.71875 61.710938 -92.632812 41.3125 -92.632812 C 21.4375 -92.632812 8.835938 -82.886719 8.835938 -67.558594 C 8.835938 -53.527344 18.839844 -45.730469 41.183594 -40.40625 C 57.554688 -36.507812 64.4375 -31.960938 64.4375 -23.515625 C 64.4375 -14.550781 56.382812 -9.222656 43.523438 -9.222656 C 29.363281 -9.222656 19.488281 -16.238281 19.226562 -27.933594 L 7.796875 -27.933594 C 7.925781 -10.132812 21.828125 1.6875 43.523438 1.6875 Z M 43.523438 1.6875 "/></g></g></g></svg>